<svg width="250" height="80" viewBox="0 0 250 80" fill="none" xmlns="http://www.w3.org/2000/svg">
<path d="M75.8199 31.04C75.8199 30.5707 75.9005 30.1087 76.0619 29.654C76.2305 29.192 76.4725 28.774 76.7879 28.4C77.1032 28.0187 77.4882 27.7143 77.9429 27.487C78.4049 27.2597 78.9292 27.146 79.5159 27.146C80.2125 27.146 80.8065 27.3073 81.2979 27.63C81.7892 27.9453 82.1559 28.3523 82.3979 28.851L81.9359 29.115C81.7525 28.7557 81.5252 28.4697 81.2539 28.257C80.9899 28.0443 80.7039 27.894 80.3959 27.806C80.0879 27.7107 79.7799 27.663 79.4719 27.663C78.9805 27.663 78.5405 27.762 78.1519 27.96C77.7705 28.158 77.4479 28.422 77.1839 28.752C76.9199 29.082 76.7182 29.4487 76.5789 29.852C76.4469 30.2553 76.3809 30.6623 76.3809 31.073C76.3809 31.535 76.4615 31.975 76.6229 32.393C76.7842 32.8037 77.0042 33.1703 77.2829 33.493C77.5689 33.8157 77.8989 34.0723 78.2729 34.263C78.6542 34.4537 79.0649 34.549 79.5049 34.549C79.8202 34.549 80.1392 34.4977 80.4619 34.395C80.7919 34.285 81.0999 34.12 81.3859 33.9C81.6719 33.6727 81.9029 33.3793 82.0789 33.02L82.5629 33.251C82.3942 33.6397 82.1412 33.9697 81.8039 34.241C81.4665 34.5123 81.0925 34.7177 80.6819 34.857C80.2712 34.9963 79.8642 35.066 79.4609 35.066C78.9329 35.066 78.4452 34.9523 77.9979 34.725C77.5505 34.4903 77.1619 34.1823 76.8319 33.801C76.5092 33.4123 76.2599 32.9797 76.0839 32.503C75.9079 32.019 75.8199 31.5313 75.8199 31.04ZM94.8326 26.97H95.3936V33.867C95.3936 34.131 95.4486 34.3143 95.5586 34.417C95.6686 34.5123 95.8116 34.56 95.9876 34.56C96.1049 34.56 96.2259 34.549 96.3506 34.527C96.4753 34.505 96.5853 34.4757 96.6806 34.439L96.7906 34.89C96.6659 34.934 96.5119 34.9743 96.3286 35.011C96.1453 35.0477 95.9876 35.066 95.8556 35.066C95.5476 35.066 95.2983 34.9743 95.1076 34.791C94.9243 34.6003 94.8326 34.3473 94.8326 34.032V26.97ZM108.635 35V29.28H109.185V35H108.635ZM109.108 28.081L108.723 27.905L109.394 26.97H110.032L109.108 28.081ZM126.588 35H126.038V31.81C126.038 31.0767 125.931 30.5413 125.719 30.204C125.513 29.8593 125.183 29.687 124.729 29.687C124.406 29.687 124.087 29.764 123.772 29.918C123.464 30.072 123.192 30.2847 122.958 30.556C122.73 30.82 122.565 31.1207 122.463 31.458V35H121.913V29.28H122.43V30.644C122.584 30.3507 122.789 30.0977 123.046 29.885C123.302 29.665 123.588 29.4927 123.904 29.368C124.219 29.2433 124.545 29.181 124.883 29.181C125.198 29.181 125.462 29.2397 125.675 29.357C125.895 29.467 126.071 29.6283 126.203 29.841C126.342 30.0537 126.441 30.3177 126.5 30.633C126.558 30.9483 126.588 31.3077 126.588 31.711V35ZM139.251 35V29.28H139.801V35H139.251ZM139.251 27.982V26.97H139.801V27.982H139.251ZM154.959 35.11C154.563 35.11 154.193 35.033 153.848 34.879C153.503 34.7177 153.203 34.5013 152.946 34.23C152.689 33.9513 152.488 33.6323 152.341 33.273C152.202 32.9137 152.132 32.5287 152.132 32.118C152.132 31.568 152.253 31.073 152.495 30.633C152.737 30.193 153.071 29.841 153.496 29.577C153.921 29.313 154.405 29.181 154.948 29.181C155.469 29.181 155.927 29.302 156.323 29.544C156.719 29.7787 157.016 30.1013 157.214 30.512L156.675 30.688C156.506 30.3727 156.264 30.127 155.949 29.951C155.641 29.7677 155.3 29.676 154.926 29.676C154.508 29.676 154.13 29.7823 153.793 29.995C153.456 30.2077 153.184 30.501 152.979 30.875C152.781 31.2417 152.682 31.656 152.682 32.118C152.682 32.5727 152.785 32.9907 152.99 33.372C153.195 33.7533 153.467 34.0577 153.804 34.285C154.149 34.505 154.526 34.615 154.937 34.615C155.201 34.615 155.458 34.5673 155.707 34.472C155.964 34.3693 156.184 34.2373 156.367 34.076C156.558 33.9147 156.682 33.7423 156.741 33.559L157.28 33.713C157.185 33.9843 157.02 34.2263 156.785 34.439C156.55 34.6443 156.275 34.8093 155.96 34.934C155.652 35.0513 155.318 35.11 154.959 35.11ZM169.049 33.35C169.049 33.0053 169.152 32.7083 169.357 32.459C169.562 32.2023 169.845 32.0043 170.204 31.865C170.563 31.7183 170.978 31.645 171.447 31.645C171.74 31.645 172.045 31.6707 172.36 31.722C172.675 31.7733 172.958 31.843 173.207 31.931V31.392C173.207 30.864 173.053 30.4423 172.745 30.127C172.444 29.8117 172.026 29.654 171.491 29.654C171.205 29.654 170.908 29.7127 170.6 29.83C170.292 29.9473 169.977 30.116 169.654 30.336L169.423 29.94C169.797 29.6907 170.156 29.5037 170.501 29.379C170.853 29.247 171.201 29.181 171.546 29.181C172.228 29.181 172.767 29.3827 173.163 29.786C173.559 30.1893 173.757 30.7393 173.757 31.436V34.274C173.757 34.362 173.775 34.428 173.812 34.472C173.856 34.516 173.918 34.5417 173.999 34.549V35C173.933 35.0073 173.878 35.011 173.834 35.011C173.79 35.011 173.753 35.011 173.724 35.011C173.585 34.989 173.475 34.9303 173.394 34.835C173.321 34.7397 173.28 34.6333 173.273 34.516V34.065C173.009 34.395 172.668 34.6517 172.25 34.835C171.839 35.0183 171.407 35.11 170.952 35.11C170.593 35.11 170.266 35.033 169.973 34.879C169.687 34.725 169.46 34.516 169.291 34.252C169.13 33.9807 169.049 33.68 169.049 33.35ZM172.987 33.823C173.06 33.7277 173.115 33.636 173.152 33.548C173.189 33.46 173.207 33.3793 173.207 33.306V32.36C172.943 32.2573 172.668 32.1803 172.382 32.129C172.096 32.0777 171.803 32.052 171.502 32.052C170.93 32.052 170.464 32.1657 170.105 32.393C169.753 32.6203 169.577 32.9283 169.577 33.317C169.577 33.559 169.639 33.7827 169.764 33.988C169.889 34.1933 170.061 34.3583 170.281 34.483C170.508 34.6077 170.769 34.67 171.062 34.67C171.473 34.67 171.85 34.593 172.195 34.439C172.547 34.2777 172.811 34.0723 172.987 33.823ZM64.4869 48.95H68.6869L68.7919 49.325H64.2919L64.4869 48.95ZM72.2719 52.82C72.3119 52.82 72.3319 52.85 72.3319 52.91C72.3319 52.97 72.3119 53 72.2719 53C72.0819 53 71.7769 52.99 71.3569 52.97C70.9369 52.95 70.6319 52.94 70.4419 52.94C70.1919 52.94 69.8969 52.95 69.5569 52.97C69.2169 52.99 68.9519 53 68.7619 53C68.7219 53 68.7019 52.97 68.7019 52.91C68.7019 52.85 68.7219 52.82 68.7619 52.82C69.0619 52.82 69.2769 52.79 69.4069 52.73C69.5369 52.66 69.6019 52.55 69.6019 52.4C69.6019 52.25 69.5169 51.995 69.3469 51.635L66.2119 45.26L66.8269 44.255L63.8569 50.945C63.7269 51.245 63.6619 51.515 63.6619 51.755C63.6619 52.105 63.7869 52.37 64.0369 52.55C64.2869 52.73 64.6369 52.82 65.0869 52.82C65.1369 52.82 65.1619 52.85 65.1619 52.91C65.1619 52.97 65.1369 53 65.0869 53C64.9069 53 64.6469 52.99 64.3069 52.97C63.9269 52.95 63.5969 52.94 63.3169 52.94C63.0469 52.94 62.7319 52.95 62.3719 52.97C62.0519 52.99 61.7869 53 61.5769 53C61.5269 53 61.5019 52.97 61.5019 52.91C61.5019 52.85 61.5269 52.82 61.5769 52.82C61.8569 52.82 62.0919 52.765 62.2819 52.655C62.4719 52.545 62.6569 52.35 62.8369 52.07C63.0169 51.78 63.2319 51.355 63.4819 50.795L66.7069 43.535C66.7269 43.505 66.7719 43.49 66.8419 43.49C66.9119 43.49 66.9519 43.505 66.9619 43.535L70.6369 50.945C70.9769 51.665 71.2619 52.16 71.4919 52.43C71.7319 52.69 71.9919 52.82 72.2719 52.82ZM72.8259 53C72.7959 53 72.7809 52.97 72.7809 52.91C72.7809 52.85 72.7959 52.82 72.8259 52.82C73.1659 52.82 73.3909 52.75 73.5009 52.61C73.6209 52.47 73.6809 52.195 73.6809 51.785V44.12C73.6809 43.77 73.6459 43.52 73.5759 43.37C73.5159 43.21 73.4059 43.13 73.2459 43.13C73.0959 43.13 72.8909 43.19 72.6309 43.31H72.6159C72.5759 43.31 72.5459 43.285 72.5259 43.235C72.5059 43.185 72.5059 43.15 72.5259 43.13L74.6409 42.14L74.7009 42.125C74.7409 42.125 74.7859 42.145 74.8359 42.185C74.8859 42.225 74.9109 42.26 74.9109 42.29V51.785C74.9109 52.195 74.9659 52.47 75.0759 52.61C75.1959 52.75 75.4259 52.82 75.7659 52.82C75.7959 52.82 75.8109 52.85 75.8109 52.91C75.8109 52.97 75.7959 53 75.7659 53C75.5159 53 75.3159 52.995 75.1659 52.985L74.2959 52.97L73.4259 52.985C73.2759 52.995 73.0759 53 72.8259 53ZM79.6906 53.18C79.0806 53.18 78.5506 53.045 78.1006 52.775C77.6606 52.505 77.3206 52.15 77.0806 51.71C76.8506 51.27 76.7356 50.795 76.7356 50.285C76.7356 49.695 76.8806 49.155 77.1706 48.665C77.4606 48.175 77.8556 47.79 78.3556 47.51C78.8656 47.22 79.4306 47.075 80.0506 47.075C80.6506 47.075 81.1106 47.22 81.4306 47.51C81.7606 47.8 81.9256 48.23 81.9256 48.8C81.9256 48.95 81.9106 49.06 81.8806 49.13C81.8606 49.2 81.8206 49.235 81.7606 49.235H80.5306C80.5806 47.995 80.2406 47.375 79.5106 47.375C79.0606 47.375 78.7056 47.58 78.4456 47.99C78.1956 48.4 78.0706 48.955 78.0706 49.655C78.0706 50.535 78.2756 51.235 78.6856 51.755C79.0956 52.265 79.6756 52.52 80.4256 52.52C80.7056 52.52 80.9406 52.485 81.1306 52.415C81.3206 52.345 81.5706 52.23 81.8806 52.07L81.9106 52.055C81.9306 52.055 81.9506 52.075 81.9706 52.115C82.0006 52.155 82.0056 52.185 81.9856 52.205C81.6256 52.545 81.2606 52.795 80.8906 52.955C80.5206 53.105 80.1206 53.18 79.6906 53.18ZM77.6206 48.995L80.9506 48.935V49.235L77.6356 49.25L77.6206 48.995ZM86.2316 53C86.2016 53 86.1866 52.97 86.1866 52.91C86.1866 52.85 86.2016 52.82 86.2316 52.82C86.4916 52.82 86.6216 52.755 86.6216 52.625C86.6216 52.535 86.5666 52.405 86.4566 52.235L83.9366 48.455C83.7166 48.115 83.4966 47.855 83.2766 47.675C83.0566 47.485 82.8566 47.39 82.6766 47.39C82.6566 47.39 82.6466 47.36 82.6466 47.3C82.6466 47.24 82.6566 47.21 82.6766 47.21C82.8866 47.21 83.0416 47.215 83.1416 47.225L83.6066 47.24L84.6116 47.225C84.7716 47.215 84.9916 47.21 85.2716 47.21C85.2916 47.21 85.3016 47.24 85.3016 47.3C85.3016 47.36 85.2916 47.39 85.2716 47.39C85.0116 47.39 84.8816 47.46 84.8816 47.6C84.8816 47.7 84.9366 47.825 85.0466 47.975L87.5516 51.755C87.8016 52.125 88.0466 52.395 88.2866 52.565C88.5266 52.735 88.7466 52.82 88.9466 52.82C88.9766 52.82 88.9916 52.85 88.9916 52.91C88.9916 52.97 88.9766 53 88.9466 53L88.4216 52.985C88.3016 52.975 88.1266 52.97 87.8966 52.97L86.8616 52.985C86.7116 52.995 86.5016 53 86.2316 53ZM82.5566 53C82.5266 53 82.5116 52.97 82.5116 52.91C82.5116 52.85 82.5266 52.82 82.5566 52.82C82.8466 52.82 83.1566 52.705 83.4866 52.475C83.8266 52.245 84.1416 51.93 84.4316 51.53L85.4966 50.06L85.7066 50.255L84.7766 51.62C84.5466 51.94 84.4316 52.2 84.4316 52.4C84.4316 52.68 84.6766 52.82 85.1666 52.82C85.1966 52.82 85.2116 52.85 85.2116 52.91C85.2116 52.97 85.1966 53 85.1666 53C84.8966 53 84.6966 52.995 84.5666 52.985L83.6666 52.97L83.0666 52.985C82.9666 52.995 82.7966 53 82.5566 53ZM85.6016 49.94L86.5166 48.59C86.7466 48.25 86.8616 47.99 86.8616 47.81C86.8616 47.53 86.6116 47.39 86.1116 47.39C86.0916 47.39 86.0816 47.36 86.0816 47.3C86.0816 47.24 86.0916 47.21 86.1116 47.21C86.3816 47.21 86.5866 47.215 86.7266 47.225L87.6266 47.24L88.2266 47.225C88.3266 47.215 88.4966 47.21 88.7366 47.21C88.7666 47.21 88.7816 47.24 88.7816 47.3C88.7816 47.36 88.7666 47.39 88.7366 47.39C88.4466 47.39 88.1316 47.505 87.7916 47.735C87.4616 47.965 87.1516 48.28 86.8616 48.68L85.7816 50.12L85.6016 49.94ZM93.813 53.09C93.773 53.11 93.728 53.12 93.678 53.12C93.498 53.12 93.333 53 93.183 52.76C93.033 52.51 92.958 52.18 92.958 51.77V49.13C92.958 48.51 92.893 48.06 92.763 47.78C92.643 47.49 92.448 47.345 92.178 47.345C91.848 47.345 91.608 47.47 91.458 47.72C91.318 47.96 91.233 48.23 91.203 48.53C91.143 49.04 90.888 49.295 90.438 49.295C90.218 49.295 90.053 49.245 89.943 49.145C89.843 49.045 89.793 48.92 89.793 48.77C89.793 48.49 89.958 48.22 90.288 47.96C90.628 47.69 91.033 47.475 91.503 47.315C91.983 47.145 92.403 47.06 92.763 47.06C93.193 47.06 93.533 47.195 93.783 47.465C94.043 47.735 94.173 48.14 94.173 48.68V51.38C94.173 52.01 94.368 52.325 94.758 52.325C94.908 52.325 95.088 52.28 95.298 52.19H95.328C95.368 52.19 95.393 52.215 95.403 52.265C95.413 52.305 95.398 52.335 95.358 52.355L93.813 53.09ZM90.993 53.105C90.583 53.105 90.273 53.01 90.063 52.82C89.853 52.63 89.748 52.37 89.748 52.04C89.748 51.77 89.818 51.55 89.958 51.38C90.108 51.21 90.293 51.075 90.513 50.975C90.733 50.865 91.063 50.73 91.503 50.57L93.108 49.97L93.153 50.195L92.058 50.66C91.788 50.77 91.573 50.89 91.413 51.02C91.253 51.15 91.173 51.345 91.173 51.605C91.173 51.845 91.248 52.035 91.398 52.175C91.558 52.315 91.743 52.385 91.953 52.385C92.143 52.385 92.338 52.325 92.538 52.205L93.348 51.665L93.363 51.89L92.298 52.64C92.058 52.81 91.838 52.93 91.638 53C91.448 53.07 91.233 53.105 90.993 53.105ZM100.007 53C99.9769 53 99.9619 52.97 99.9619 52.91C99.9619 52.85 99.9769 52.82 100.007 52.82C100.347 52.82 100.572 52.75 100.682 52.61C100.792 52.47 100.847 52.195 100.847 51.785V49.535C100.847 48.975 100.742 48.565 100.532 48.305C100.332 48.035 100.012 47.9 99.5719 47.9C99.2419 47.9 98.9069 47.99 98.5669 48.17C98.2369 48.35 97.9669 48.59 97.7569 48.89L97.6819 48.71C98.4819 47.59 99.3619 47.03 100.322 47.03C100.872 47.03 101.297 47.195 101.597 47.525C101.907 47.855 102.062 48.31 102.062 48.89V51.785C102.062 52.195 102.117 52.47 102.227 52.61C102.347 52.75 102.577 52.82 102.917 52.82C102.947 52.82 102.962 52.85 102.962 52.91C102.962 52.97 102.947 53 102.917 53C102.667 53 102.467 52.995 102.317 52.985L101.462 52.97L100.607 52.985C100.457 52.995 100.257 53 100.007 53ZM95.9719 53C95.9419 53 95.9269 52.97 95.9269 52.91C95.9269 52.85 95.9419 52.82 95.9719 52.82C96.3119 52.82 96.5369 52.75 96.6469 52.61C96.7569 52.47 96.8119 52.195 96.8119 51.785V48.92C96.8119 48.6 96.7719 48.365 96.6919 48.215C96.6219 48.065 96.5019 47.99 96.3319 47.99C96.1819 47.99 95.9319 48.065 95.5819 48.215H95.5669C95.5269 48.215 95.4969 48.19 95.4769 48.14C95.4569 48.09 95.4619 48.06 95.4919 48.05L97.4569 47.09C97.5169 47.07 97.5519 47.06 97.5619 47.06C97.6719 47.06 97.7769 47.185 97.8769 47.435C97.9769 47.685 98.0269 48.01 98.0269 48.41V51.785C98.0269 52.195 98.0819 52.47 98.1919 52.61C98.3119 52.75 98.5419 52.82 98.8819 52.82C98.9119 52.82 98.9269 52.85 98.9269 52.91C98.9269 52.97 98.9119 53 98.8819 53C98.6319 53 98.4319 52.995 98.2819 52.985L97.4269 52.97L96.5569 52.985C96.4169 52.995 96.2219 53 95.9719 53ZM106.058 53.195C105.628 53.195 105.233 53.08 104.873 52.85C104.513 52.61 104.228 52.27 104.018 51.83C103.808 51.39 103.703 50.875 103.703 50.285C103.703 49.545 103.878 48.93 104.228 48.44C104.578 47.95 105.018 47.59 105.548 47.36C106.078 47.13 106.608 47.015 107.138 47.015C107.788 47.015 108.403 47.195 108.983 47.555L108.698 48.695C108.458 48.245 108.193 47.915 107.903 47.705C107.623 47.485 107.273 47.375 106.853 47.375C106.283 47.375 105.838 47.575 105.518 47.975C105.208 48.375 105.053 48.99 105.053 49.82C105.053 50.66 105.218 51.325 105.548 51.815C105.878 52.295 106.298 52.535 106.808 52.535C107.188 52.535 107.528 52.435 107.828 52.235C108.138 52.035 108.468 51.745 108.818 51.365L108.953 51.485C108.493 51.995 108.038 52.41 107.588 52.73C107.148 53.04 106.638 53.195 106.058 53.195ZM109.613 51.29C109.613 51.64 109.648 51.89 109.718 52.04C109.788 52.18 109.908 52.25 110.078 52.25C110.278 52.25 110.503 52.19 110.753 52.07H110.768C110.798 52.07 110.823 52.095 110.843 52.145C110.873 52.195 110.873 52.225 110.843 52.235L108.923 53.165L108.833 53.18C108.713 53.18 108.608 53.055 108.518 52.805C108.438 52.555 108.398 52.21 108.398 51.77V44.12C108.398 43.77 108.363 43.52 108.293 43.37C108.233 43.21 108.118 43.13 107.948 43.13C107.838 43.13 107.638 43.19 107.348 43.31H107.318C107.278 43.31 107.248 43.285 107.228 43.235C107.208 43.185 107.213 43.155 107.243 43.145L109.343 42.14L109.403 42.125C109.443 42.125 109.488 42.145 109.538 42.185C109.588 42.225 109.613 42.26 109.613 42.29V51.29ZM113.09 48.755C113.63 48.115 114.06 47.675 114.38 47.435C114.7 47.185 114.985 47.06 115.235 47.06C115.455 47.06 115.67 47.135 115.88 47.285C116.09 47.435 116.195 47.615 116.195 47.825C116.195 48.015 116.14 48.17 116.03 48.29C115.92 48.4 115.765 48.455 115.565 48.455C115.435 48.455 115.33 48.43 115.25 48.38C115.17 48.33 115.08 48.255 114.98 48.155C114.89 48.065 114.81 48 114.74 47.96C114.67 47.91 114.585 47.885 114.485 47.885C114.355 47.885 114.205 47.95 114.035 48.08C113.875 48.21 113.595 48.495 113.195 48.935L113.09 48.755ZM111.485 53C111.455 53 111.44 52.97 111.44 52.91C111.44 52.85 111.455 52.82 111.485 52.82C111.825 52.82 112.05 52.75 112.16 52.61C112.27 52.47 112.325 52.195 112.325 51.785V48.92C112.325 48.6 112.285 48.365 112.205 48.215C112.135 48.065 112.015 47.99 111.845 47.99C111.695 47.99 111.445 48.065 111.095 48.215H111.08C111.04 48.215 111.01 48.19 110.99 48.14C110.97 48.09 110.975 48.06 111.005 48.05L112.97 47.09C113.03 47.07 113.065 47.06 113.075 47.06C113.185 47.06 113.29 47.185 113.39 47.435C113.49 47.685 113.54 48.01 113.54 48.41V51.785C113.54 52.065 113.58 52.28 113.66 52.43C113.74 52.57 113.875 52.67 114.065 52.73C114.265 52.79 114.55 52.82 114.92 52.82C114.96 52.82 114.98 52.85 114.98 52.91C114.98 52.97 114.96 53 114.92 53C114.58 53 114.31 52.995 114.11 52.985L112.94 52.97L112.07 52.985C111.93 52.995 111.735 53 111.485 53ZM121.044 53.09C121.004 53.11 120.959 53.12 120.909 53.12C120.729 53.12 120.564 53 120.414 52.76C120.264 52.51 120.189 52.18 120.189 51.77V49.13C120.189 48.51 120.124 48.06 119.994 47.78C119.874 47.49 119.679 47.345 119.409 47.345C119.079 47.345 118.839 47.47 118.689 47.72C118.549 47.96 118.464 48.23 118.434 48.53C118.374 49.04 118.119 49.295 117.669 49.295C117.449 49.295 117.284 49.245 117.174 49.145C117.074 49.045 117.024 48.92 117.024 48.77C117.024 48.49 117.189 48.22 117.519 47.96C117.859 47.69 118.264 47.475 118.734 47.315C119.214 47.145 119.634 47.06 119.994 47.06C120.424 47.06 120.764 47.195 121.014 47.465C121.274 47.735 121.404 48.14 121.404 48.68V51.38C121.404 52.01 121.599 52.325 121.989 52.325C122.139 52.325 122.319 52.28 122.529 52.19H122.559C122.599 52.19 122.624 52.215 122.634 52.265C122.644 52.305 122.629 52.335 122.589 52.355L121.044 53.09ZM118.224 53.105C117.814 53.105 117.504 53.01 117.294 52.82C117.084 52.63 116.979 52.37 116.979 52.04C116.979 51.77 117.049 51.55 117.189 51.38C117.339 51.21 117.524 51.075 117.744 50.975C117.964 50.865 118.294 50.73 118.734 50.57L120.339 49.97L120.384 50.195L119.289 50.66C119.019 50.77 118.804 50.89 118.644 51.02C118.484 51.15 118.404 51.345 118.404 51.605C118.404 51.845 118.479 52.035 118.629 52.175C118.789 52.315 118.974 52.385 119.184 52.385C119.374 52.385 119.569 52.325 119.769 52.205L120.579 51.665L120.594 51.89L119.529 52.64C119.289 52.81 119.069 52.93 118.869 53C118.679 53.07 118.464 53.105 118.224 53.105ZM129.224 51.725C129.224 52.045 129.259 52.28 129.329 52.43C129.409 52.57 129.554 52.67 129.764 52.73C129.984 52.79 130.324 52.82 130.784 52.82C130.814 52.82 130.829 52.85 130.829 52.91C130.829 52.97 130.814 53 130.784 53C130.374 53 130.054 52.995 129.824 52.985L128.519 52.97L127.439 52.985C127.249 52.995 126.989 53 126.659 53C126.629 53 126.614 52.97 126.614 52.91C126.614 52.85 126.629 52.82 126.659 52.82C126.999 52.82 127.244 52.795 127.394 52.745C127.554 52.695 127.659 52.6 127.709 52.46C127.769 52.31 127.799 52.085 127.799 51.785V44.84C127.799 44.54 127.769 44.32 127.709 44.18C127.659 44.04 127.554 43.945 127.394 43.895C127.234 43.835 126.989 43.805 126.659 43.805C126.629 43.805 126.614 43.775 126.614 43.715C126.614 43.655 126.629 43.625 126.659 43.625L127.439 43.64C127.879 43.66 128.234 43.67 128.504 43.67C128.734 43.67 129.014 43.655 129.344 43.625C129.464 43.615 129.624 43.605 129.824 43.595C130.034 43.585 130.279 43.58 130.559 43.58C131.539 43.58 132.319 43.79 132.899 44.21C133.479 44.63 133.769 45.275 133.769 46.145C133.769 46.775 133.604 47.31 133.274 47.75C132.954 48.19 132.539 48.52 132.029 48.74C131.529 48.96 131.014 49.07 130.484 49.07C130.204 49.07 129.964 49.045 129.764 48.995C129.744 48.995 129.734 48.97 129.734 48.92C129.734 48.89 129.739 48.86 129.749 48.83C129.769 48.8 129.789 48.79 129.809 48.8C129.959 48.84 130.134 48.86 130.334 48.86C130.854 48.86 131.294 48.645 131.654 48.215C132.014 47.785 132.194 47.17 132.194 46.37C132.194 45.58 132.009 44.97 131.639 44.54C131.279 44.1 130.769 43.88 130.109 43.88C129.869 43.88 129.684 43.905 129.554 43.955C129.434 44.005 129.349 44.1 129.299 44.24C129.249 44.37 129.224 44.58 129.224 44.87V51.725ZM138.652 53.09C138.612 53.11 138.567 53.12 138.517 53.12C138.337 53.12 138.172 53 138.022 52.76C137.872 52.51 137.797 52.18 137.797 51.77V49.13C137.797 48.51 137.732 48.06 137.602 47.78C137.482 47.49 137.287 47.345 137.017 47.345C136.687 47.345 136.447 47.47 136.297 47.72C136.157 47.96 136.072 48.23 136.042 48.53C135.982 49.04 135.727 49.295 135.277 49.295C135.057 49.295 134.892 49.245 134.782 49.145C134.682 49.045 134.632 48.92 134.632 48.77C134.632 48.49 134.797 48.22 135.127 47.96C135.467 47.69 135.872 47.475 136.342 47.315C136.822 47.145 137.242 47.06 137.602 47.06C138.032 47.06 138.372 47.195 138.622 47.465C138.882 47.735 139.012 48.14 139.012 48.68V51.38C139.012 52.01 139.207 52.325 139.597 52.325C139.747 52.325 139.927 52.28 140.137 52.19H140.167C140.207 52.19 140.232 52.215 140.242 52.265C140.252 52.305 140.237 52.335 140.197 52.355L138.652 53.09ZM135.832 53.105C135.422 53.105 135.112 53.01 134.902 52.82C134.692 52.63 134.587 52.37 134.587 52.04C134.587 51.77 134.657 51.55 134.797 51.38C134.947 51.21 135.132 51.075 135.352 50.975C135.572 50.865 135.902 50.73 136.342 50.57L137.947 49.97L137.992 50.195L136.897 50.66C136.627 50.77 136.412 50.89 136.252 51.02C136.092 51.15 136.012 51.345 136.012 51.605C136.012 51.845 136.087 52.035 136.237 52.175C136.397 52.315 136.582 52.385 136.792 52.385C136.982 52.385 137.177 52.325 137.377 52.205L138.187 51.665L138.202 51.89L137.137 52.64C136.897 52.81 136.677 52.93 136.477 53C136.287 53.07 136.072 53.105 135.832 53.105ZM140.751 53C140.721 53 140.706 52.97 140.706 52.91C140.706 52.85 140.721 52.82 140.751 52.82C141.091 52.82 141.316 52.75 141.426 52.61C141.546 52.47 141.606 52.195 141.606 51.785V44.12C141.606 43.77 141.571 43.52 141.501 43.37C141.441 43.21 141.331 43.13 141.171 43.13C141.021 43.13 140.816 43.19 140.556 43.31H140.541C140.501 43.31 140.471 43.285 140.451 43.235C140.431 43.185 140.431 43.15 140.451 43.13L142.566 42.14L142.626 42.125C142.666 42.125 142.711 42.145 142.761 42.185C142.811 42.225 142.836 42.26 142.836 42.29V51.785C142.836 52.195 142.891 52.47 143.001 52.61C143.121 52.75 143.351 52.82 143.691 52.82C143.721 52.82 143.736 52.85 143.736 52.91C143.736 52.97 143.721 53 143.691 53C143.441 53 143.241 52.995 143.091 52.985L142.221 52.97L141.351 52.985C141.201 52.995 141.001 53 140.751 53ZM147.615 53.18C147.005 53.18 146.475 53.045 146.025 52.775C145.585 52.505 145.245 52.15 145.005 51.71C144.775 51.27 144.66 50.795 144.66 50.285C144.66 49.695 144.805 49.155 145.095 48.665C145.385 48.175 145.78 47.79 146.28 47.51C146.79 47.22 147.355 47.075 147.975 47.075C148.575 47.075 149.035 47.22 149.355 47.51C149.685 47.8 149.85 48.23 149.85 48.8C149.85 48.95 149.835 49.06 149.805 49.13C149.785 49.2 149.745 49.235 149.685 49.235H148.455C148.505 47.995 148.165 47.375 147.435 47.375C146.985 47.375 146.63 47.58 146.37 47.99C146.12 48.4 145.995 48.955 145.995 49.655C145.995 50.535 146.2 51.235 146.61 51.755C147.02 52.265 147.6 52.52 148.35 52.52C148.63 52.52 148.865 52.485 149.055 52.415C149.245 52.345 149.495 52.23 149.805 52.07L149.835 52.055C149.855 52.055 149.875 52.075 149.895 52.115C149.925 52.155 149.93 52.185 149.91 52.205C149.55 52.545 149.185 52.795 148.815 52.955C148.445 53.105 148.045 53.18 147.615 53.18ZM145.545 48.995L148.875 48.935V49.235L145.56 49.25L145.545 48.995ZM155.026 53C154.996 53 154.981 52.97 154.981 52.91C154.981 52.85 154.996 52.82 155.026 52.82C155.366 52.82 155.591 52.75 155.701 52.61C155.811 52.47 155.866 52.195 155.866 51.785V49.535C155.866 48.975 155.761 48.565 155.551 48.305C155.351 48.035 155.031 47.9 154.591 47.9C154.261 47.9 153.926 47.99 153.586 48.17C153.256 48.35 152.986 48.59 152.776 48.89L152.701 48.71C153.501 47.59 154.381 47.03 155.341 47.03C155.891 47.03 156.316 47.195 156.616 47.525C156.926 47.855 157.081 48.31 157.081 48.89V51.785C157.081 52.195 157.136 52.47 157.246 52.61C157.366 52.75 157.596 52.82 157.936 52.82C157.966 52.82 157.981 52.85 157.981 52.91C157.981 52.97 157.966 53 157.936 53C157.686 53 157.486 52.995 157.336 52.985L156.481 52.97L155.626 52.985C155.476 52.995 155.276 53 155.026 53ZM150.991 53C150.961 53 150.946 52.97 150.946 52.91C150.946 52.85 150.961 52.82 150.991 52.82C151.331 52.82 151.556 52.75 151.666 52.61C151.776 52.47 151.831 52.195 151.831 51.785V48.92C151.831 48.6 151.791 48.365 151.711 48.215C151.641 48.065 151.521 47.99 151.351 47.99C151.201 47.99 150.951 48.065 150.601 48.215H150.586C150.546 48.215 150.516 48.19 150.496 48.14C150.476 48.09 150.481 48.06 150.511 48.05L152.476 47.09C152.536 47.07 152.571 47.06 152.581 47.06C152.691 47.06 152.796 47.185 152.896 47.435C152.996 47.685 153.046 48.01 153.046 48.41V51.785C153.046 52.195 153.101 52.47 153.211 52.61C153.331 52.75 153.561 52.82 153.901 52.82C153.931 52.82 153.946 52.85 153.946 52.91C153.946 52.97 153.931 53 153.901 53C153.651 53 153.451 52.995 153.301 52.985L152.446 52.97L151.576 52.985C151.436 52.995 151.241 53 150.991 53ZM162.203 47.525C162.243 47.455 162.218 47.42 162.128 47.42C161.198 47.42 160.478 47.535 159.968 47.765C159.458 47.995 159.113 48.38 158.933 48.92C158.933 48.94 158.913 48.95 158.873 48.95C158.843 48.95 158.813 48.945 158.783 48.935C158.753 48.915 158.743 48.9 158.753 48.89L159.353 46.67C159.353 46.66 159.373 46.655 159.413 46.655C159.493 46.655 159.528 46.675 159.518 46.715C159.498 46.795 159.488 46.85 159.488 46.88C159.488 47.01 159.548 47.1 159.668 47.15C159.788 47.19 159.983 47.21 160.253 47.21H163.613C163.653 47.21 163.683 47.23 163.703 47.27C163.733 47.31 163.743 47.35 163.733 47.39L160.268 52.64C160.238 52.71 160.263 52.745 160.343 52.745C161.093 52.745 161.688 52.695 162.128 52.595C162.578 52.495 162.923 52.33 163.163 52.1C163.403 51.86 163.578 51.53 163.688 51.11C163.698 51.09 163.728 51.08 163.778 51.08C163.838 51.08 163.868 51.09 163.868 51.11L163.838 52.835C163.838 52.875 163.823 52.915 163.793 52.955C163.763 52.985 163.728 53 163.688 53H158.873C158.833 53 158.798 52.98 158.768 52.94C158.748 52.9 158.748 52.86 158.768 52.82L162.203 47.525ZM167.142 53.165C166.602 53.165 166.182 53 165.882 52.67C165.582 52.33 165.432 51.87 165.432 51.29V49.055C165.432 48.705 165.392 48.45 165.312 48.29C165.242 48.12 165.127 48.035 164.967 48.035C164.837 48.035 164.697 48.075 164.547 48.155H164.532C164.492 48.155 164.462 48.13 164.442 48.08C164.422 48.03 164.427 47.995 164.457 47.975L166.347 47.09L166.422 47.075C166.462 47.075 166.507 47.095 166.557 47.135C166.607 47.175 166.632 47.21 166.632 47.24V50.645C166.632 51.205 166.732 51.625 166.932 51.905C167.142 52.175 167.457 52.31 167.877 52.31C168.197 52.31 168.517 52.22 168.837 52.04C169.167 51.85 169.437 51.605 169.647 51.305L169.737 51.485C168.917 52.605 168.052 53.165 167.142 53.165ZM170.562 51.305C170.562 51.645 170.597 51.89 170.667 52.04C170.737 52.18 170.857 52.25 171.027 52.25C171.147 52.25 171.372 52.19 171.702 52.07L171.732 52.055C171.762 52.055 171.787 52.08 171.807 52.13C171.827 52.18 171.822 52.215 171.792 52.235L169.827 53.18L169.767 53.195C169.657 53.195 169.562 53.07 169.482 52.82C169.402 52.57 169.362 52.235 169.362 51.815V49.055C169.362 48.705 169.322 48.45 169.242 48.29C169.172 48.12 169.057 48.035 168.897 48.035C168.777 48.035 168.637 48.075 168.477 48.155H168.462C168.422 48.155 168.392 48.13 168.372 48.08C168.352 48.02 168.362 47.985 168.402 47.975L170.292 47.09L170.352 47.075C170.392 47.075 170.437 47.095 170.487 47.135C170.537 47.175 170.562 47.21 170.562 47.24V51.305ZM175.272 53.18C174.662 53.18 174.132 53.045 173.682 52.775C173.242 52.505 172.902 52.15 172.662 51.71C172.432 51.27 172.317 50.795 172.317 50.285C172.317 49.695 172.462 49.155 172.752 48.665C173.042 48.175 173.437 47.79 173.937 47.51C174.447 47.22 175.012 47.075 175.632 47.075C176.232 47.075 176.692 47.22 177.012 47.51C177.342 47.8 177.507 48.23 177.507 48.8C177.507 48.95 177.492 49.06 177.462 49.13C177.442 49.2 177.402 49.235 177.342 49.235H176.112C176.162 47.995 175.822 47.375 175.092 47.375C174.642 47.375 174.287 47.58 174.027 47.99C173.777 48.4 173.652 48.955 173.652 49.655C173.652 50.535 173.857 51.235 174.267 51.755C174.677 52.265 175.257 52.52 176.007 52.52C176.287 52.52 176.522 52.485 176.712 52.415C176.902 52.345 177.152 52.23 177.462 52.07L177.492 52.055C177.512 52.055 177.532 52.075 177.552 52.115C177.582 52.155 177.587 52.185 177.567 52.205C177.207 52.545 176.842 52.795 176.472 52.955C176.102 53.105 175.702 53.18 175.272 53.18ZM173.202 48.995L176.532 48.935V49.235L173.217 49.25L173.202 48.995ZM178.588 53C178.558 53 178.543 52.97 178.543 52.91C178.543 52.85 178.558 52.82 178.588 52.82C178.928 52.82 179.153 52.75 179.263 52.61C179.383 52.47 179.443 52.195 179.443 51.785V44.12C179.443 43.77 179.408 43.52 179.338 43.37C179.278 43.21 179.168 43.13 179.008 43.13C178.858 43.13 178.653 43.19 178.393 43.31H178.378C178.338 43.31 178.308 43.285 178.288 43.235C178.268 43.185 178.268 43.15 178.288 43.13L180.403 42.14L180.463 42.125C180.503 42.125 180.548 42.145 180.598 42.185C180.648 42.225 180.673 42.26 180.673 42.29V51.785C180.673 52.195 180.728 52.47 180.838 52.61C180.958 52.75 181.188 52.82 181.528 52.82C181.558 52.82 181.573 52.85 181.573 52.91C181.573 52.97 181.558 53 181.528 53C181.278 53 181.078 52.995 180.928 52.985L180.058 52.97L179.188 52.985C179.038 52.995 178.838 53 178.588 53ZM186.757 53.09C186.717 53.11 186.672 53.12 186.622 53.12C186.442 53.12 186.277 53 186.127 52.76C185.977 52.51 185.902 52.18 185.902 51.77V49.13C185.902 48.51 185.837 48.06 185.707 47.78C185.587 47.49 185.392 47.345 185.122 47.345C184.792 47.345 184.552 47.47 184.402 47.72C184.262 47.96 184.177 48.23 184.147 48.53C184.087 49.04 183.832 49.295 183.382 49.295C183.162 49.295 182.997 49.245 182.887 49.145C182.787 49.045 182.737 48.92 182.737 48.77C182.737 48.49 182.902 48.22 183.232 47.96C183.572 47.69 183.977 47.475 184.447 47.315C184.927 47.145 185.347 47.06 185.707 47.06C186.137 47.06 186.477 47.195 186.727 47.465C186.987 47.735 187.117 48.14 187.117 48.68V51.38C187.117 52.01 187.312 52.325 187.702 52.325C187.852 52.325 188.032 52.28 188.242 52.19H188.272C188.312 52.19 188.337 52.215 188.347 52.265C188.357 52.305 188.342 52.335 188.302 52.355L186.757 53.09ZM183.937 53.105C183.527 53.105 183.217 53.01 183.007 52.82C182.797 52.63 182.692 52.37 182.692 52.04C182.692 51.77 182.762 51.55 182.902 51.38C183.052 51.21 183.237 51.075 183.457 50.975C183.677 50.865 184.007 50.73 184.447 50.57L186.052 49.97L186.097 50.195L185.002 50.66C184.732 50.77 184.517 50.89 184.357 51.02C184.197 51.15 184.117 51.345 184.117 51.605C184.117 51.845 184.192 52.035 184.342 52.175C184.502 52.315 184.687 52.385 184.897 52.385C185.087 52.385 185.282 52.325 185.482 52.205L186.292 51.665L186.307 51.89L185.242 52.64C185.002 52.81 184.782 52.93 184.582 53C184.392 53.07 184.177 53.105 183.937 53.105Z" fill="white"/>
</svg>
