<svg width="250" height="80" viewBox="0 0 250 80" fill="none" xmlns="http://www.w3.org/2000/svg">
<rect width="250" height="80" fill="#EB9C9B"/>
<path d="M34.484 31.04C34.484 30.5707 34.5647 30.1087 34.726 29.654C34.8947 29.192 35.1367 28.774 35.452 28.4C35.7673 28.0187 36.1523 27.7143 36.607 27.487C37.069 27.2597 37.5933 27.146 38.18 27.146C38.8767 27.146 39.4707 27.3073 39.962 27.63C40.4533 27.9453 40.82 28.3523 41.062 28.851L40.6 29.115C40.4167 28.7557 40.1893 28.4697 39.918 28.257C39.654 28.0443 39.368 27.894 39.06 27.806C38.752 27.7107 38.444 27.663 38.136 27.663C37.6447 27.663 37.2047 27.762 36.816 27.96C36.4347 28.158 36.112 28.422 35.848 28.752C35.584 29.082 35.3823 29.4487 35.243 29.852C35.111 30.2553 35.045 30.6623 35.045 31.073C35.045 31.535 35.1257 31.975 35.287 32.393C35.4483 32.8037 35.6683 33.1703 35.947 33.493C36.233 33.8157 36.563 34.0723 36.937 34.263C37.3183 34.4537 37.729 34.549 38.169 34.549C38.4843 34.549 38.8033 34.4977 39.126 34.395C39.456 34.285 39.764 34.12 40.05 33.9C40.336 33.6727 40.567 33.3793 40.743 33.02L41.227 33.251C41.0583 33.6397 40.8053 33.9697 40.468 34.241C40.1307 34.5123 39.7567 34.7177 39.346 34.857C38.9353 34.9963 38.5283 35.066 38.125 35.066C37.597 35.066 37.1093 34.9523 36.662 34.725C36.2147 34.4903 35.826 34.1823 35.496 33.801C35.1733 33.4123 34.924 32.9797 34.748 32.503C34.572 32.019 34.484 31.5313 34.484 31.04ZM53.4967 26.97H54.0577V33.867C54.0577 34.131 54.1127 34.3143 54.2227 34.417C54.3327 34.5123 54.4757 34.56 54.6517 34.56C54.7691 34.56 54.8901 34.549 55.0147 34.527C55.1394 34.505 55.2494 34.4757 55.3447 34.439L55.4547 34.89C55.3301 34.934 55.1761 34.9743 54.9927 35.011C54.8094 35.0477 54.6517 35.066 54.5197 35.066C54.2117 35.066 53.9624 34.9743 53.7717 34.791C53.5884 34.6003 53.4967 34.3473 53.4967 34.032V26.97ZM67.2994 35V29.28H67.8494V35H67.2994ZM67.7724 28.081L67.3874 27.905L68.0584 26.97H68.6964L67.7724 28.081ZM85.2518 35H84.7018V31.81C84.7018 31.0767 84.5954 30.5413 84.3828 30.204C84.1774 29.8593 83.8474 29.687 83.3928 29.687C83.0701 29.687 82.7511 29.764 82.4358 29.918C82.1278 30.072 81.8564 30.2847 81.6218 30.556C81.3944 30.82 81.2294 31.1207 81.1268 31.458V35H80.5768V29.28H81.0938V30.644C81.2478 30.3507 81.4531 30.0977 81.7098 29.885C81.9664 29.665 82.2524 29.4927 82.5678 29.368C82.8831 29.2433 83.2094 29.181 83.5468 29.181C83.8621 29.181 84.1261 29.2397 84.3388 29.357C84.5588 29.467 84.7348 29.6283 84.8668 29.841C85.0061 30.0537 85.1051 30.3177 85.1638 30.633C85.2224 30.9483 85.2518 31.3077 85.2518 31.711V35ZM97.9146 35V29.28H98.4646V35H97.9146ZM97.9146 27.982V26.97H98.4646V27.982H97.9146ZM113.623 35.11C113.227 35.11 112.857 35.033 112.512 34.879C112.167 34.7177 111.867 34.5013 111.61 34.23C111.353 33.9513 111.152 33.6323 111.005 33.273C110.866 32.9137 110.796 32.5287 110.796 32.118C110.796 31.568 110.917 31.073 111.159 30.633C111.401 30.193 111.735 29.841 112.16 29.577C112.585 29.313 113.069 29.181 113.612 29.181C114.133 29.181 114.591 29.302 114.987 29.544C115.383 29.7787 115.68 30.1013 115.878 30.512L115.339 30.688C115.17 30.3727 114.928 30.127 114.613 29.951C114.305 29.7677 113.964 29.676 113.59 29.676C113.172 29.676 112.794 29.7823 112.457 29.995C112.12 30.2077 111.848 30.501 111.643 30.875C111.445 31.2417 111.346 31.656 111.346 32.118C111.346 32.5727 111.449 32.9907 111.654 33.372C111.859 33.7533 112.131 34.0577 112.468 34.285C112.813 34.505 113.19 34.615 113.601 34.615C113.865 34.615 114.122 34.5673 114.371 34.472C114.628 34.3693 114.848 34.2373 115.031 34.076C115.222 33.9147 115.346 33.7423 115.405 33.559L115.944 33.713C115.849 33.9843 115.684 34.2263 115.449 34.439C115.214 34.6443 114.939 34.8093 114.624 34.934C114.316 35.0513 113.982 35.11 113.623 35.11ZM127.713 33.35C127.713 33.0053 127.816 32.7083 128.021 32.459C128.226 32.2023 128.509 32.0043 128.868 31.865C129.227 31.7183 129.642 31.645 130.111 31.645C130.404 31.645 130.709 31.6707 131.024 31.722C131.339 31.7733 131.622 31.843 131.871 31.931V31.392C131.871 30.864 131.717 30.4423 131.409 30.127C131.108 29.8117 130.69 29.654 130.155 29.654C129.869 29.654 129.572 29.7127 129.264 29.83C128.956 29.9473 128.641 30.116 128.318 30.336L128.087 29.94C128.461 29.6907 128.82 29.5037 129.165 29.379C129.517 29.247 129.865 29.181 130.21 29.181C130.892 29.181 131.431 29.3827 131.827 29.786C132.223 30.1893 132.421 30.7393 132.421 31.436V34.274C132.421 34.362 132.439 34.428 132.476 34.472C132.52 34.516 132.582 34.5417 132.663 34.549V35C132.597 35.0073 132.542 35.011 132.498 35.011C132.454 35.011 132.417 35.011 132.388 35.011C132.249 34.989 132.139 34.9303 132.058 34.835C131.985 34.7397 131.944 34.6333 131.937 34.516V34.065C131.673 34.395 131.332 34.6517 130.914 34.835C130.503 35.0183 130.071 35.11 129.616 35.11C129.257 35.11 128.93 35.033 128.637 34.879C128.351 34.725 128.124 34.516 127.955 34.252C127.794 33.9807 127.713 33.68 127.713 33.35ZM131.651 33.823C131.724 33.7277 131.779 33.636 131.816 33.548C131.853 33.46 131.871 33.3793 131.871 33.306V32.36C131.607 32.2573 131.332 32.1803 131.046 32.129C130.76 32.0777 130.467 32.052 130.166 32.052C129.594 32.052 129.128 32.1657 128.769 32.393C128.417 32.6203 128.241 32.9283 128.241 33.317C128.241 33.559 128.303 33.7827 128.428 33.988C128.553 34.1933 128.725 34.3583 128.945 34.483C129.172 34.6077 129.433 34.67 129.726 34.67C130.137 34.67 130.514 34.593 130.859 34.439C131.211 34.2777 131.475 34.0723 131.651 33.823ZM36.88 48.95H41.08L41.185 49.325H36.685L36.88 48.95ZM44.665 52.82C44.705 52.82 44.725 52.85 44.725 52.91C44.725 52.97 44.705 53 44.665 53C44.475 53 44.17 52.99 43.75 52.97C43.33 52.95 43.025 52.94 42.835 52.94C42.585 52.94 42.29 52.95 41.95 52.97C41.61 52.99 41.345 53 41.155 53C41.115 53 41.095 52.97 41.095 52.91C41.095 52.85 41.115 52.82 41.155 52.82C41.455 52.82 41.67 52.79 41.8 52.73C41.93 52.66 41.995 52.55 41.995 52.4C41.995 52.25 41.91 51.995 41.74 51.635L38.605 45.26L39.22 44.255L36.25 50.945C36.12 51.245 36.055 51.515 36.055 51.755C36.055 52.105 36.18 52.37 36.43 52.55C36.68 52.73 37.03 52.82 37.48 52.82C37.53 52.82 37.555 52.85 37.555 52.91C37.555 52.97 37.53 53 37.48 53C37.3 53 37.04 52.99 36.7 52.97C36.32 52.95 35.99 52.94 35.71 52.94C35.44 52.94 35.125 52.95 34.765 52.97C34.445 52.99 34.18 53 33.97 53C33.92 53 33.895 52.97 33.895 52.91C33.895 52.85 33.92 52.82 33.97 52.82C34.25 52.82 34.485 52.765 34.675 52.655C34.865 52.545 35.05 52.35 35.23 52.07C35.41 51.78 35.625 51.355 35.875 50.795L39.1 43.535C39.12 43.505 39.165 43.49 39.235 43.49C39.305 43.49 39.345 43.505 39.355 43.535L43.03 50.945C43.37 51.665 43.655 52.16 43.885 52.43C44.125 52.69 44.385 52.82 44.665 52.82ZM45.2191 53C45.1891 53 45.1741 52.97 45.1741 52.91C45.1741 52.85 45.1891 52.82 45.2191 52.82C45.5591 52.82 45.7841 52.75 45.8941 52.61C46.0141 52.47 46.0741 52.195 46.0741 51.785V44.12C46.0741 43.77 46.0391 43.52 45.9691 43.37C45.9091 43.21 45.7991 43.13 45.6391 43.13C45.4891 43.13 45.2841 43.19 45.0241 43.31H45.0091C44.9691 43.31 44.9391 43.285 44.9191 43.235C44.8991 43.185 44.8991 43.15 44.9191 43.13L47.0341 42.14L47.0941 42.125C47.1341 42.125 47.1791 42.145 47.2291 42.185C47.2791 42.225 47.3041 42.26 47.3041 42.29V51.785C47.3041 52.195 47.3591 52.47 47.4691 52.61C47.5891 52.75 47.8191 52.82 48.1591 52.82C48.1891 52.82 48.2041 52.85 48.2041 52.91C48.2041 52.97 48.1891 53 48.1591 53C47.9091 53 47.7091 52.995 47.5591 52.985L46.6891 52.97L45.8191 52.985C45.6691 52.995 45.4691 53 45.2191 53ZM52.0838 53.18C51.4738 53.18 50.9438 53.045 50.4938 52.775C50.0538 52.505 49.7138 52.15 49.4738 51.71C49.2438 51.27 49.1288 50.795 49.1288 50.285C49.1288 49.695 49.2738 49.155 49.5638 48.665C49.8538 48.175 50.2488 47.79 50.7488 47.51C51.2588 47.22 51.8238 47.075 52.4438 47.075C53.0438 47.075 53.5038 47.22 53.8238 47.51C54.1538 47.8 54.3188 48.23 54.3188 48.8C54.3188 48.95 54.3038 49.06 54.2738 49.13C54.2538 49.2 54.2138 49.235 54.1538 49.235H52.9238C52.9738 47.995 52.6338 47.375 51.9038 47.375C51.4538 47.375 51.0988 47.58 50.8388 47.99C50.5888 48.4 50.4638 48.955 50.4638 49.655C50.4638 50.535 50.6688 51.235 51.0788 51.755C51.4888 52.265 52.0688 52.52 52.8188 52.52C53.0988 52.52 53.3338 52.485 53.5238 52.415C53.7138 52.345 53.9638 52.23 54.2738 52.07L54.3038 52.055C54.3238 52.055 54.3438 52.075 54.3638 52.115C54.3938 52.155 54.3988 52.185 54.3788 52.205C54.0188 52.545 53.6538 52.795 53.2838 52.955C52.9138 53.105 52.5138 53.18 52.0838 53.18ZM50.0138 48.995L53.3438 48.935V49.235L50.0288 49.25L50.0138 48.995ZM58.6247 53C58.5947 53 58.5797 52.97 58.5797 52.91C58.5797 52.85 58.5947 52.82 58.6247 52.82C58.8847 52.82 59.0147 52.755 59.0147 52.625C59.0147 52.535 58.9597 52.405 58.8497 52.235L56.3297 48.455C56.1097 48.115 55.8897 47.855 55.6697 47.675C55.4497 47.485 55.2497 47.39 55.0697 47.39C55.0497 47.39 55.0397 47.36 55.0397 47.3C55.0397 47.24 55.0497 47.21 55.0697 47.21C55.2797 47.21 55.4347 47.215 55.5347 47.225L55.9997 47.24L57.0047 47.225C57.1647 47.215 57.3847 47.21 57.6647 47.21C57.6847 47.21 57.6947 47.24 57.6947 47.3C57.6947 47.36 57.6847 47.39 57.6647 47.39C57.4047 47.39 57.2747 47.46 57.2747 47.6C57.2747 47.7 57.3297 47.825 57.4397 47.975L59.9447 51.755C60.1947 52.125 60.4397 52.395 60.6797 52.565C60.9197 52.735 61.1397 52.82 61.3397 52.82C61.3697 52.82 61.3847 52.85 61.3847 52.91C61.3847 52.97 61.3697 53 61.3397 53L60.8147 52.985C60.6947 52.975 60.5197 52.97 60.2897 52.97L59.2547 52.985C59.1047 52.995 58.8947 53 58.6247 53ZM54.9497 53C54.9197 53 54.9047 52.97 54.9047 52.91C54.9047 52.85 54.9197 52.82 54.9497 52.82C55.2397 52.82 55.5497 52.705 55.8797 52.475C56.2197 52.245 56.5347 51.93 56.8247 51.53L57.8897 50.06L58.0997 50.255L57.1697 51.62C56.9397 51.94 56.8247 52.2 56.8247 52.4C56.8247 52.68 57.0697 52.82 57.5597 52.82C57.5897 52.82 57.6047 52.85 57.6047 52.91C57.6047 52.97 57.5897 53 57.5597 53C57.2897 53 57.0897 52.995 56.9597 52.985L56.0597 52.97L55.4597 52.985C55.3597 52.995 55.1897 53 54.9497 53ZM57.9947 49.94L58.9097 48.59C59.1397 48.25 59.2547 47.99 59.2547 47.81C59.2547 47.53 59.0047 47.39 58.5047 47.39C58.4847 47.39 58.4747 47.36 58.4747 47.3C58.4747 47.24 58.4847 47.21 58.5047 47.21C58.7747 47.21 58.9797 47.215 59.1197 47.225L60.0197 47.24L60.6197 47.225C60.7197 47.215 60.8897 47.21 61.1297 47.21C61.1597 47.21 61.1747 47.24 61.1747 47.3C61.1747 47.36 61.1597 47.39 61.1297 47.39C60.8397 47.39 60.5247 47.505 60.1847 47.735C59.8547 47.965 59.5447 48.28 59.2547 48.68L58.1747 50.12L57.9947 49.94ZM66.2062 53.09C66.1662 53.11 66.1212 53.12 66.0712 53.12C65.8912 53.12 65.7262 53 65.5762 52.76C65.4262 52.51 65.3512 52.18 65.3512 51.77V49.13C65.3512 48.51 65.2862 48.06 65.1562 47.78C65.0362 47.49 64.8412 47.345 64.5712 47.345C64.2412 47.345 64.0012 47.47 63.8512 47.72C63.7112 47.96 63.6262 48.23 63.5962 48.53C63.5362 49.04 63.2812 49.295 62.8312 49.295C62.6112 49.295 62.4462 49.245 62.3362 49.145C62.2362 49.045 62.1862 48.92 62.1862 48.77C62.1862 48.49 62.3512 48.22 62.6812 47.96C63.0212 47.69 63.4262 47.475 63.8962 47.315C64.3762 47.145 64.7962 47.06 65.1562 47.06C65.5862 47.06 65.9262 47.195 66.1762 47.465C66.4362 47.735 66.5662 48.14 66.5662 48.68V51.38C66.5662 52.01 66.7612 52.325 67.1512 52.325C67.3012 52.325 67.4812 52.28 67.6912 52.19H67.7212C67.7612 52.19 67.7862 52.215 67.7962 52.265C67.8062 52.305 67.7912 52.335 67.7512 52.355L66.2062 53.09ZM63.3862 53.105C62.9762 53.105 62.6662 53.01 62.4562 52.82C62.2462 52.63 62.1412 52.37 62.1412 52.04C62.1412 51.77 62.2112 51.55 62.3512 51.38C62.5012 51.21 62.6862 51.075 62.9062 50.975C63.1262 50.865 63.4562 50.73 63.8962 50.57L65.5012 49.97L65.5462 50.195L64.4512 50.66C64.1812 50.77 63.9662 50.89 63.8062 51.02C63.6462 51.15 63.5662 51.345 63.5662 51.605C63.5662 51.845 63.6412 52.035 63.7912 52.175C63.9512 52.315 64.1362 52.385 64.3462 52.385C64.5362 52.385 64.7312 52.325 64.9312 52.205L65.7412 51.665L65.7562 51.89L64.6912 52.64C64.4512 52.81 64.2312 52.93 64.0312 53C63.8412 53.07 63.6262 53.105 63.3862 53.105ZM72.4 53C72.37 53 72.355 52.97 72.355 52.91C72.355 52.85 72.37 52.82 72.4 52.82C72.74 52.82 72.965 52.75 73.075 52.61C73.185 52.47 73.24 52.195 73.24 51.785V49.535C73.24 48.975 73.135 48.565 72.925 48.305C72.725 48.035 72.405 47.9 71.965 47.9C71.635 47.9 71.3 47.99 70.96 48.17C70.63 48.35 70.36 48.59 70.15 48.89L70.075 48.71C70.875 47.59 71.755 47.03 72.715 47.03C73.265 47.03 73.69 47.195 73.99 47.525C74.3 47.855 74.455 48.31 74.455 48.89V51.785C74.455 52.195 74.51 52.47 74.62 52.61C74.74 52.75 74.97 52.82 75.31 52.82C75.34 52.82 75.355 52.85 75.355 52.91C75.355 52.97 75.34 53 75.31 53C75.06 53 74.86 52.995 74.71 52.985L73.855 52.97L73 52.985C72.85 52.995 72.65 53 72.4 53ZM68.365 53C68.335 53 68.32 52.97 68.32 52.91C68.32 52.85 68.335 52.82 68.365 52.82C68.705 52.82 68.93 52.75 69.04 52.61C69.15 52.47 69.205 52.195 69.205 51.785V48.92C69.205 48.6 69.165 48.365 69.085 48.215C69.015 48.065 68.895 47.99 68.725 47.99C68.575 47.99 68.325 48.065 67.975 48.215H67.96C67.92 48.215 67.89 48.19 67.87 48.14C67.85 48.09 67.855 48.06 67.885 48.05L69.85 47.09C69.91 47.07 69.945 47.06 69.955 47.06C70.065 47.06 70.17 47.185 70.27 47.435C70.37 47.685 70.42 48.01 70.42 48.41V51.785C70.42 52.195 70.475 52.47 70.585 52.61C70.705 52.75 70.935 52.82 71.275 52.82C71.305 52.82 71.32 52.85 71.32 52.91C71.32 52.97 71.305 53 71.275 53C71.025 53 70.825 52.995 70.675 52.985L69.82 52.97L68.95 52.985C68.81 52.995 68.615 53 68.365 53ZM78.4516 53.195C78.0216 53.195 77.6266 53.08 77.2666 52.85C76.9066 52.61 76.6216 52.27 76.4116 51.83C76.2016 51.39 76.0966 50.875 76.0966 50.285C76.0966 49.545 76.2716 48.93 76.6216 48.44C76.9716 47.95 77.4116 47.59 77.9416 47.36C78.4716 47.13 79.0016 47.015 79.5316 47.015C80.1816 47.015 80.7966 47.195 81.3766 47.555L81.0916 48.695C80.8516 48.245 80.5866 47.915 80.2966 47.705C80.0166 47.485 79.6666 47.375 79.2466 47.375C78.6766 47.375 78.2316 47.575 77.9116 47.975C77.6016 48.375 77.4466 48.99 77.4466 49.82C77.4466 50.66 77.6116 51.325 77.9416 51.815C78.2716 52.295 78.6916 52.535 79.2016 52.535C79.5816 52.535 79.9216 52.435 80.2216 52.235C80.5316 52.035 80.8616 51.745 81.2116 51.365L81.3466 51.485C80.8866 51.995 80.4316 52.41 79.9816 52.73C79.5416 53.04 79.0316 53.195 78.4516 53.195ZM82.0066 51.29C82.0066 51.64 82.0416 51.89 82.1116 52.04C82.1816 52.18 82.3016 52.25 82.4716 52.25C82.6716 52.25 82.8966 52.19 83.1466 52.07H83.1616C83.1916 52.07 83.2166 52.095 83.2366 52.145C83.2666 52.195 83.2666 52.225 83.2366 52.235L81.3166 53.165L81.2266 53.18C81.1066 53.18 81.0016 53.055 80.9116 52.805C80.8316 52.555 80.7916 52.21 80.7916 51.77V44.12C80.7916 43.77 80.7566 43.52 80.6866 43.37C80.6266 43.21 80.5116 43.13 80.3416 43.13C80.2316 43.13 80.0316 43.19 79.7416 43.31H79.7116C79.6716 43.31 79.6416 43.285 79.6216 43.235C79.6016 43.185 79.6066 43.155 79.6366 43.145L81.7366 42.14L81.7966 42.125C81.8366 42.125 81.8816 42.145 81.9316 42.185C81.9816 42.225 82.0066 42.26 82.0066 42.29V51.29ZM85.4827 48.755C86.0227 48.115 86.4527 47.675 86.7727 47.435C87.0927 47.185 87.3777 47.06 87.6277 47.06C87.8477 47.06 88.0627 47.135 88.2727 47.285C88.4827 47.435 88.5877 47.615 88.5877 47.825C88.5877 48.015 88.5327 48.17 88.4227 48.29C88.3127 48.4 88.1577 48.455 87.9577 48.455C87.8277 48.455 87.7227 48.43 87.6427 48.38C87.5627 48.33 87.4727 48.255 87.3727 48.155C87.2827 48.065 87.2027 48 87.1327 47.96C87.0627 47.91 86.9777 47.885 86.8777 47.885C86.7477 47.885 86.5977 47.95 86.4277 48.08C86.2677 48.21 85.9877 48.495 85.5877 48.935L85.4827 48.755ZM83.8777 53C83.8477 53 83.8327 52.97 83.8327 52.91C83.8327 52.85 83.8477 52.82 83.8777 52.82C84.2177 52.82 84.4427 52.75 84.5527 52.61C84.6627 52.47 84.7177 52.195 84.7177 51.785V48.92C84.7177 48.6 84.6777 48.365 84.5977 48.215C84.5277 48.065 84.4077 47.99 84.2377 47.99C84.0877 47.99 83.8377 48.065 83.4877 48.215H83.4727C83.4327 48.215 83.4027 48.19 83.3827 48.14C83.3627 48.09 83.3677 48.06 83.3977 48.05L85.3627 47.09C85.4227 47.07 85.4577 47.06 85.4677 47.06C85.5777 47.06 85.6827 47.185 85.7827 47.435C85.8827 47.685 85.9327 48.01 85.9327 48.41V51.785C85.9327 52.065 85.9727 52.28 86.0527 52.43C86.1327 52.57 86.2677 52.67 86.4577 52.73C86.6577 52.79 86.9427 52.82 87.3127 52.82C87.3527 52.82 87.3727 52.85 87.3727 52.91C87.3727 52.97 87.3527 53 87.3127 53C86.9727 53 86.7027 52.995 86.5027 52.985L85.3327 52.97L84.4627 52.985C84.3227 52.995 84.1277 53 83.8777 53ZM93.4376 53.09C93.3976 53.11 93.3526 53.12 93.3026 53.12C93.1226 53.12 92.9576 53 92.8076 52.76C92.6576 52.51 92.5826 52.18 92.5826 51.77V49.13C92.5826 48.51 92.5176 48.06 92.3876 47.78C92.2676 47.49 92.0726 47.345 91.8026 47.345C91.4726 47.345 91.2326 47.47 91.0826 47.72C90.9426 47.96 90.8576 48.23 90.8276 48.53C90.7676 49.04 90.5126 49.295 90.0626 49.295C89.8426 49.295 89.6776 49.245 89.5676 49.145C89.4676 49.045 89.4176 48.92 89.4176 48.77C89.4176 48.49 89.5826 48.22 89.9126 47.96C90.2526 47.69 90.6576 47.475 91.1276 47.315C91.6076 47.145 92.0276 47.06 92.3876 47.06C92.8176 47.06 93.1576 47.195 93.4076 47.465C93.6676 47.735 93.7976 48.14 93.7976 48.68V51.38C93.7976 52.01 93.9926 52.325 94.3826 52.325C94.5326 52.325 94.7126 52.28 94.9226 52.19H94.9526C94.9926 52.19 95.0176 52.215 95.0276 52.265C95.0376 52.305 95.0226 52.335 94.9826 52.355L93.4376 53.09ZM90.6176 53.105C90.2076 53.105 89.8976 53.01 89.6876 52.82C89.4776 52.63 89.3726 52.37 89.3726 52.04C89.3726 51.77 89.4426 51.55 89.5826 51.38C89.7326 51.21 89.9176 51.075 90.1376 50.975C90.3576 50.865 90.6876 50.73 91.1276 50.57L92.7326 49.97L92.7776 50.195L91.6826 50.66C91.4126 50.77 91.1976 50.89 91.0376 51.02C90.8776 51.15 90.7976 51.345 90.7976 51.605C90.7976 51.845 90.8726 52.035 91.0226 52.175C91.1826 52.315 91.3676 52.385 91.5776 52.385C91.7676 52.385 91.9626 52.325 92.1626 52.205L92.9726 51.665L92.9876 51.89L91.9226 52.64C91.6826 52.81 91.4626 52.93 91.2626 53C91.0726 53.07 90.8576 53.105 90.6176 53.105ZM101.617 51.725C101.617 52.045 101.652 52.28 101.722 52.43C101.802 52.57 101.947 52.67 102.157 52.73C102.377 52.79 102.717 52.82 103.177 52.82C103.207 52.82 103.222 52.85 103.222 52.91C103.222 52.97 103.207 53 103.177 53C102.767 53 102.447 52.995 102.217 52.985L100.912 52.97L99.8321 52.985C99.6421 52.995 99.3821 53 99.0521 53C99.0221 53 99.0071 52.97 99.0071 52.91C99.0071 52.85 99.0221 52.82 99.0521 52.82C99.3921 52.82 99.6371 52.795 99.7871 52.745C99.9471 52.695 100.052 52.6 100.102 52.46C100.162 52.31 100.192 52.085 100.192 51.785V44.84C100.192 44.54 100.162 44.32 100.102 44.18C100.052 44.04 99.9471 43.945 99.7871 43.895C99.6271 43.835 99.3821 43.805 99.0521 43.805C99.0221 43.805 99.0071 43.775 99.0071 43.715C99.0071 43.655 99.0221 43.625 99.0521 43.625L99.8321 43.64C100.272 43.66 100.627 43.67 100.897 43.67C101.127 43.67 101.407 43.655 101.737 43.625C101.857 43.615 102.017 43.605 102.217 43.595C102.427 43.585 102.672 43.58 102.952 43.58C103.932 43.58 104.712 43.79 105.292 44.21C105.872 44.63 106.162 45.275 106.162 46.145C106.162 46.775 105.997 47.31 105.667 47.75C105.347 48.19 104.932 48.52 104.422 48.74C103.922 48.96 103.407 49.07 102.877 49.07C102.597 49.07 102.357 49.045 102.157 48.995C102.137 48.995 102.127 48.97 102.127 48.92C102.127 48.89 102.132 48.86 102.142 48.83C102.162 48.8 102.182 48.79 102.202 48.8C102.352 48.84 102.527 48.86 102.727 48.86C103.247 48.86 103.687 48.645 104.047 48.215C104.407 47.785 104.587 47.17 104.587 46.37C104.587 45.58 104.402 44.97 104.032 44.54C103.672 44.1 103.162 43.88 102.502 43.88C102.262 43.88 102.077 43.905 101.947 43.955C101.827 44.005 101.742 44.1 101.692 44.24C101.642 44.37 101.617 44.58 101.617 44.87V51.725ZM111.045 53.09C111.005 53.11 110.96 53.12 110.91 53.12C110.73 53.12 110.565 53 110.415 52.76C110.265 52.51 110.19 52.18 110.19 51.77V49.13C110.19 48.51 110.125 48.06 109.995 47.78C109.875 47.49 109.68 47.345 109.41 47.345C109.08 47.345 108.84 47.47 108.69 47.72C108.55 47.96 108.465 48.23 108.435 48.53C108.375 49.04 108.12 49.295 107.67 49.295C107.45 49.295 107.285 49.245 107.175 49.145C107.075 49.045 107.025 48.92 107.025 48.77C107.025 48.49 107.19 48.22 107.52 47.96C107.86 47.69 108.265 47.475 108.735 47.315C109.215 47.145 109.635 47.06 109.995 47.06C110.425 47.06 110.765 47.195 111.015 47.465C111.275 47.735 111.405 48.14 111.405 48.68V51.38C111.405 52.01 111.6 52.325 111.99 52.325C112.14 52.325 112.32 52.28 112.53 52.19H112.56C112.6 52.19 112.625 52.215 112.635 52.265C112.645 52.305 112.63 52.335 112.59 52.355L111.045 53.09ZM108.225 53.105C107.815 53.105 107.505 53.01 107.295 52.82C107.085 52.63 106.98 52.37 106.98 52.04C106.98 51.77 107.05 51.55 107.19 51.38C107.34 51.21 107.525 51.075 107.745 50.975C107.965 50.865 108.295 50.73 108.735 50.57L110.34 49.97L110.385 50.195L109.29 50.66C109.02 50.77 108.805 50.89 108.645 51.02C108.485 51.15 108.405 51.345 108.405 51.605C108.405 51.845 108.48 52.035 108.63 52.175C108.79 52.315 108.975 52.385 109.185 52.385C109.375 52.385 109.57 52.325 109.77 52.205L110.58 51.665L110.595 51.89L109.53 52.64C109.29 52.81 109.07 52.93 108.87 53C108.68 53.07 108.465 53.105 108.225 53.105ZM113.144 53C113.114 53 113.099 52.97 113.099 52.91C113.099 52.85 113.114 52.82 113.144 52.82C113.484 52.82 113.709 52.75 113.819 52.61C113.939 52.47 113.999 52.195 113.999 51.785V44.12C113.999 43.77 113.964 43.52 113.894 43.37C113.834 43.21 113.724 43.13 113.564 43.13C113.414 43.13 113.209 43.19 112.949 43.31H112.934C112.894 43.31 112.864 43.285 112.844 43.235C112.824 43.185 112.824 43.15 112.844 43.13L114.959 42.14L115.019 42.125C115.059 42.125 115.104 42.145 115.154 42.185C115.204 42.225 115.229 42.26 115.229 42.29V51.785C115.229 52.195 115.284 52.47 115.394 52.61C115.514 52.75 115.744 52.82 116.084 52.82C116.114 52.82 116.129 52.85 116.129 52.91C116.129 52.97 116.114 53 116.084 53C115.834 53 115.634 52.995 115.484 52.985L114.614 52.97L113.744 52.985C113.594 52.995 113.394 53 113.144 53ZM120.009 53.18C119.399 53.18 118.869 53.045 118.419 52.775C117.979 52.505 117.639 52.15 117.399 51.71C117.169 51.27 117.054 50.795 117.054 50.285C117.054 49.695 117.199 49.155 117.489 48.665C117.779 48.175 118.174 47.79 118.674 47.51C119.184 47.22 119.749 47.075 120.369 47.075C120.969 47.075 121.429 47.22 121.749 47.51C122.079 47.8 122.244 48.23 122.244 48.8C122.244 48.95 122.229 49.06 122.199 49.13C122.179 49.2 122.139 49.235 122.079 49.235H120.849C120.899 47.995 120.559 47.375 119.829 47.375C119.379 47.375 119.024 47.58 118.764 47.99C118.514 48.4 118.389 48.955 118.389 49.655C118.389 50.535 118.594 51.235 119.004 51.755C119.414 52.265 119.994 52.52 120.744 52.52C121.024 52.52 121.259 52.485 121.449 52.415C121.639 52.345 121.889 52.23 122.199 52.07L122.229 52.055C122.249 52.055 122.269 52.075 122.289 52.115C122.319 52.155 122.324 52.185 122.304 52.205C121.944 52.545 121.579 52.795 121.209 52.955C120.839 53.105 120.439 53.18 120.009 53.18ZM117.939 48.995L121.269 48.935V49.235L117.954 49.25L117.939 48.995ZM127.42 53C127.39 53 127.375 52.97 127.375 52.91C127.375 52.85 127.39 52.82 127.42 52.82C127.76 52.82 127.985 52.75 128.095 52.61C128.205 52.47 128.26 52.195 128.26 51.785V49.535C128.26 48.975 128.155 48.565 127.945 48.305C127.745 48.035 127.425 47.9 126.985 47.9C126.655 47.9 126.32 47.99 125.98 48.17C125.65 48.35 125.38 48.59 125.17 48.89L125.095 48.71C125.895 47.59 126.775 47.03 127.735 47.03C128.285 47.03 128.71 47.195 129.01 47.525C129.32 47.855 129.475 48.31 129.475 48.89V51.785C129.475 52.195 129.53 52.47 129.64 52.61C129.76 52.75 129.99 52.82 130.33 52.82C130.36 52.82 130.375 52.85 130.375 52.91C130.375 52.97 130.36 53 130.33 53C130.08 53 129.88 52.995 129.73 52.985L128.875 52.97L128.02 52.985C127.87 52.995 127.67 53 127.42 53ZM123.385 53C123.355 53 123.34 52.97 123.34 52.91C123.34 52.85 123.355 52.82 123.385 52.82C123.725 52.82 123.95 52.75 124.06 52.61C124.17 52.47 124.225 52.195 124.225 51.785V48.92C124.225 48.6 124.185 48.365 124.105 48.215C124.035 48.065 123.915 47.99 123.745 47.99C123.595 47.99 123.345 48.065 122.995 48.215H122.98C122.94 48.215 122.91 48.19 122.89 48.14C122.87 48.09 122.875 48.06 122.905 48.05L124.87 47.09C124.93 47.07 124.965 47.06 124.975 47.06C125.085 47.06 125.19 47.185 125.29 47.435C125.39 47.685 125.44 48.01 125.44 48.41V51.785C125.44 52.195 125.495 52.47 125.605 52.61C125.725 52.75 125.955 52.82 126.295 52.82C126.325 52.82 126.34 52.85 126.34 52.91C126.34 52.97 126.325 53 126.295 53C126.045 53 125.845 52.995 125.695 52.985L124.84 52.97L123.97 52.985C123.83 52.995 123.635 53 123.385 53ZM134.596 47.525C134.636 47.455 134.611 47.42 134.521 47.42C133.591 47.42 132.871 47.535 132.361 47.765C131.851 47.995 131.506 48.38 131.326 48.92C131.326 48.94 131.306 48.95 131.266 48.95C131.236 48.95 131.206 48.945 131.176 48.935C131.146 48.915 131.136 48.9 131.146 48.89L131.746 46.67C131.746 46.66 131.766 46.655 131.806 46.655C131.886 46.655 131.921 46.675 131.911 46.715C131.891 46.795 131.881 46.85 131.881 46.88C131.881 47.01 131.941 47.1 132.061 47.15C132.181 47.19 132.376 47.21 132.646 47.21H136.006C136.046 47.21 136.076 47.23 136.096 47.27C136.126 47.31 136.136 47.35 136.126 47.39L132.661 52.64C132.631 52.71 132.656 52.745 132.736 52.745C133.486 52.745 134.081 52.695 134.521 52.595C134.971 52.495 135.316 52.33 135.556 52.1C135.796 51.86 135.971 51.53 136.081 51.11C136.091 51.09 136.121 51.08 136.171 51.08C136.231 51.08 136.261 51.09 136.261 51.11L136.231 52.835C136.231 52.875 136.216 52.915 136.186 52.955C136.156 52.985 136.121 53 136.081 53H131.266C131.226 53 131.191 52.98 131.161 52.94C131.141 52.9 131.141 52.86 131.161 52.82L134.596 47.525ZM139.535 53.165C138.995 53.165 138.575 53 138.275 52.67C137.975 52.33 137.825 51.87 137.825 51.29V49.055C137.825 48.705 137.785 48.45 137.705 48.29C137.635 48.12 137.52 48.035 137.36 48.035C137.23 48.035 137.09 48.075 136.94 48.155H136.925C136.885 48.155 136.855 48.13 136.835 48.08C136.815 48.03 136.82 47.995 136.85 47.975L138.74 47.09L138.815 47.075C138.855 47.075 138.9 47.095 138.95 47.135C139 47.175 139.025 47.21 139.025 47.24V50.645C139.025 51.205 139.125 51.625 139.325 51.905C139.535 52.175 139.85 52.31 140.27 52.31C140.59 52.31 140.91 52.22 141.23 52.04C141.56 51.85 141.83 51.605 142.04 51.305L142.13 51.485C141.31 52.605 140.445 53.165 139.535 53.165ZM142.955 51.305C142.955 51.645 142.99 51.89 143.06 52.04C143.13 52.18 143.25 52.25 143.42 52.25C143.54 52.25 143.765 52.19 144.095 52.07L144.125 52.055C144.155 52.055 144.18 52.08 144.2 52.13C144.22 52.18 144.215 52.215 144.185 52.235L142.22 53.18L142.16 53.195C142.05 53.195 141.955 53.07 141.875 52.82C141.795 52.57 141.755 52.235 141.755 51.815V49.055C141.755 48.705 141.715 48.45 141.635 48.29C141.565 48.12 141.45 48.035 141.29 48.035C141.17 48.035 141.03 48.075 140.87 48.155H140.855C140.815 48.155 140.785 48.13 140.765 48.08C140.745 48.02 140.755 47.985 140.795 47.975L142.685 47.09L142.745 47.075C142.785 47.075 142.83 47.095 142.88 47.135C142.93 47.175 142.955 47.21 142.955 47.24V51.305ZM147.665 53.18C147.055 53.18 146.525 53.045 146.075 52.775C145.635 52.505 145.295 52.15 145.055 51.71C144.825 51.27 144.71 50.795 144.71 50.285C144.71 49.695 144.855 49.155 145.145 48.665C145.435 48.175 145.83 47.79 146.33 47.51C146.84 47.22 147.405 47.075 148.025 47.075C148.625 47.075 149.085 47.22 149.405 47.51C149.735 47.8 149.9 48.23 149.9 48.8C149.9 48.95 149.885 49.06 149.855 49.13C149.835 49.2 149.795 49.235 149.735 49.235H148.505C148.555 47.995 148.215 47.375 147.485 47.375C147.035 47.375 146.68 47.58 146.42 47.99C146.17 48.4 146.045 48.955 146.045 49.655C146.045 50.535 146.25 51.235 146.66 51.755C147.07 52.265 147.65 52.52 148.4 52.52C148.68 52.52 148.915 52.485 149.105 52.415C149.295 52.345 149.545 52.23 149.855 52.07L149.885 52.055C149.905 52.055 149.925 52.075 149.945 52.115C149.975 52.155 149.98 52.185 149.96 52.205C149.6 52.545 149.235 52.795 148.865 52.955C148.495 53.105 148.095 53.18 147.665 53.18ZM145.595 48.995L148.925 48.935V49.235L145.61 49.25L145.595 48.995ZM150.981 53C150.951 53 150.936 52.97 150.936 52.91C150.936 52.85 150.951 52.82 150.981 52.82C151.321 52.82 151.546 52.75 151.656 52.61C151.776 52.47 151.836 52.195 151.836 51.785V44.12C151.836 43.77 151.801 43.52 151.731 43.37C151.671 43.21 151.561 43.13 151.401 43.13C151.251 43.13 151.046 43.19 150.786 43.31H150.771C150.731 43.31 150.701 43.285 150.681 43.235C150.661 43.185 150.661 43.15 150.681 43.13L152.796 42.14L152.856 42.125C152.896 42.125 152.941 42.145 152.991 42.185C153.041 42.225 153.066 42.26 153.066 42.29V51.785C153.066 52.195 153.121 52.47 153.231 52.61C153.351 52.75 153.581 52.82 153.921 52.82C153.951 52.82 153.966 52.85 153.966 52.91C153.966 52.97 153.951 53 153.921 53C153.671 53 153.471 52.995 153.321 52.985L152.451 52.97L151.581 52.985C151.431 52.995 151.231 53 150.981 53ZM159.151 53.09C159.111 53.11 159.066 53.12 159.016 53.12C158.836 53.12 158.671 53 158.521 52.76C158.371 52.51 158.296 52.18 158.296 51.77V49.13C158.296 48.51 158.231 48.06 158.101 47.78C157.981 47.49 157.786 47.345 157.516 47.345C157.186 47.345 156.946 47.47 156.796 47.72C156.656 47.96 156.571 48.23 156.541 48.53C156.481 49.04 156.226 49.295 155.776 49.295C155.556 49.295 155.391 49.245 155.281 49.145C155.181 49.045 155.131 48.92 155.131 48.77C155.131 48.49 155.296 48.22 155.626 47.96C155.966 47.69 156.371 47.475 156.841 47.315C157.321 47.145 157.741 47.06 158.101 47.06C158.531 47.06 158.871 47.195 159.121 47.465C159.381 47.735 159.511 48.14 159.511 48.68V51.38C159.511 52.01 159.706 52.325 160.096 52.325C160.246 52.325 160.426 52.28 160.636 52.19H160.666C160.706 52.19 160.731 52.215 160.741 52.265C160.751 52.305 160.736 52.335 160.696 52.355L159.151 53.09ZM156.331 53.105C155.921 53.105 155.611 53.01 155.401 52.82C155.191 52.63 155.086 52.37 155.086 52.04C155.086 51.77 155.156 51.55 155.296 51.38C155.446 51.21 155.631 51.075 155.851 50.975C156.071 50.865 156.401 50.73 156.841 50.57L158.446 49.97L158.491 50.195L157.396 50.66C157.126 50.77 156.911 50.89 156.751 51.02C156.591 51.15 156.511 51.345 156.511 51.605C156.511 51.845 156.586 52.035 156.736 52.175C156.896 52.315 157.081 52.385 157.291 52.385C157.481 52.385 157.676 52.325 157.876 52.205L158.686 51.665L158.701 51.89L157.636 52.64C157.396 52.81 157.176 52.93 156.976 53C156.786 53.07 156.571 53.105 156.331 53.105Z" fill="white"/>
<path d="M199.231 14.2188C199.65 14.2739 199.65 14.2739 199.765 14.375C199.768 14.5744 199.766 14.7718 199.761 14.971C199.759 15.0968 199.757 15.2226 199.755 15.3484C199.752 15.5458 199.748 15.7432 199.743 15.9406C199.719 16.8544 199.812 17.6395 200.12 18.5156C200.139 18.5683 200.157 18.6209 200.176 18.6752C200.674 20.0789 201.358 21.4453 202.203 22.7148C202.994 23.9165 203.56 25.2017 203.971 26.5391C204.027 26.7087 204.092 26.8725 204.161 27.038C204.868 28.795 204.583 30.8462 203.941 32.5781C203.905 32.6813 203.868 32.7844 203.832 32.8876C203.746 33.1206 203.656 33.3517 203.563 33.5826C203.42 33.9446 203.285 34.309 203.147 34.6729C203.086 34.8349 203.024 34.997 202.962 35.159C202.853 35.4474 202.745 35.736 202.638 36.0251C202.615 36.0866 202.592 36.1481 202.568 36.2115C202.527 36.3222 202.486 36.4331 202.445 36.5441C202.327 36.8607 202.19 37.1666 202.042 37.4734C201.84 37.8952 201.662 38.3219 201.49 38.7536C200.839 40.3734 200.032 41.9256 199.179 43.4703C198.828 44.1103 198.543 44.7572 198.316 45.4397C198.275 45.5628 198.232 45.6855 198.188 45.8079C196.733 49.9273 198.602 54.2595 200.742 57.8906C200.864 58.0905 200.987 58.2897 201.11 58.4888C201.846 59.6822 202.414 60.9125 202.608 62.2656C202.621 62.3487 202.621 62.3487 202.633 62.4335C202.711 63.0291 202.719 63.6246 202.719 64.2236C202.72 64.28 202.72 64.3363 202.72 64.3943C202.719 66.3387 202.575 68.3075 202.219 70.2274C202.149 70.6113 202.122 70.9942 202.103 71.3828C202.075 71.5625 202.075 71.5625 201.897 71.7188C201.583 71.6769 201.583 71.6769 201.453 71.5625C201.379 70.3737 201.531 69.1935 201.67 68.0127C201.701 67.7426 201.731 67.4724 201.762 67.2022C201.781 67.0359 201.8 66.8695 201.82 66.7032C202.267 62.8526 201.512 60.3708 199.481 56.9727C198.757 55.7577 198.091 54.5405 197.721 53.2031C197.676 53.0593 197.676 53.0593 197.63 52.9126C197.21 51.5219 197.076 50.0873 197.071 48.6523C197.07 48.5614 197.07 48.4704 197.069 48.3767C197.078 47.4604 197.214 46.5723 197.51 45.6934C197.533 45.6236 197.556 45.5539 197.58 45.482C198.015 44.2185 198.642 43.0428 199.3 41.8596C199.902 40.7763 200.467 39.6882 200.882 38.5379C201.047 38.0908 201.238 37.6521 201.425 37.2119C203.451 32.4263 204.674 28.8223 202.254 23.9635C202.009 23.4992 201.738 23.0483 201.443 22.6074C200.802 21.6489 200.325 20.6396 199.854 19.6094C199.827 19.5536 199.801 19.4978 199.774 19.4403C199.09 17.9724 198.579 16.0494 199.051 14.4803C199.143 14.2969 199.143 14.2969 199.231 14.2188Z" fill="#0C0C0C"/>
<path d="M195.934 22.0949C196.123 22.0947 196.313 22.0933 196.503 22.0918C196.624 22.0916 196.744 22.0914 196.865 22.0914C197.029 22.0909 197.029 22.0909 197.195 22.0904C197.454 22.1094 197.454 22.1094 197.632 22.2656C197.61 22.4658 197.61 22.4658 197.543 22.6562C197.326 22.7516 197.179 22.7466 196.937 22.7509C196.848 22.7529 196.759 22.7549 196.668 22.757C196.572 22.7592 196.476 22.7614 196.377 22.7637C193.794 22.842 191.908 23.1372 189.989 24.7656C189.883 24.8554 189.883 24.8554 189.774 24.9469C189.505 25.1924 189.264 25.4508 189.023 25.7178C188.976 25.7701 188.928 25.8225 188.88 25.8764C188.52 26.2773 188.175 26.6824 187.856 27.1094C187.82 27.158 187.783 27.2066 187.746 27.2567C186.164 29.3706 184.8 31.6833 183.701 34.0238C183.446 34.5613 183.152 35.0788 182.847 35.5957C182.778 35.7119 182.778 35.7119 182.708 35.8304C182.324 36.4703 182.324 36.4703 182.08 36.6406C181.841 36.6162 181.841 36.6162 181.636 36.5625C181.682 36.1509 181.792 35.8499 182.008 35.4834C182.039 35.4307 182.07 35.378 182.101 35.3237C182.503 34.6414 182.922 33.9666 183.338 33.291C183.572 32.9112 183.803 32.5304 184.032 32.1484C184.729 30.9894 185.446 29.8463 186.208 28.7193C186.336 28.5295 186.463 28.3392 186.589 28.1485C189.864 23.2044 189.864 23.2044 192.833 22.4219C192.914 22.3995 192.996 22.3772 193.08 22.3541C194.021 22.1104 194.959 22.0948 195.934 22.0949Z" fill="#0D0D0D"/>
<path d="M197.871 8.54003C197.938 8.55776 198.006 8.57548 198.076 8.59375C198.084 8.90298 198.089 9.21219 198.093 9.52148C198.095 9.60809 198.097 9.6947 198.1 9.78393C198.106 10.4373 198.049 11.1995 197.543 11.7187C197.285 11.8645 197.018 11.9902 196.743 12.1094C196.756 12.2689 196.769 12.4284 196.782 12.5879C196.789 12.6767 196.796 12.7655 196.804 12.8571C196.828 13.1212 196.828 13.1212 196.878 13.3655C197.178 14.9668 196.286 16.4342 195.271 17.7066C194.977 18.066 194.668 18.4112 194.344 18.75C194.268 18.831 194.192 18.9121 194.117 18.9932C192.115 21.1253 192.115 21.1253 190.833 21.2762C189.786 21.29 189.066 20.9508 188.242 20.4153C188.016 20.2185 187.959 20.12 187.945 19.8437C188.034 19.7656 188.034 19.7656 188.27 19.7421C188.642 19.7715 188.835 19.8834 189.145 20.0635C189.849 20.4678 190.375 20.7546 191.233 20.625C191.513 20.5063 191.719 20.3418 191.944 20.1562C192.015 20.1043 192.085 20.0523 192.157 19.9988C192.721 19.5752 193.178 19.1063 193.633 18.5937C193.711 18.5081 193.79 18.4225 193.869 18.3371C194.681 17.4518 195.477 16.5385 195.943 15.4687C195.986 15.3838 195.986 15.3838 196.029 15.2972C196.32 14.6226 196.382 13.58 196.121 12.8906C196.106 12.7364 196.097 12.5815 196.093 12.4268C196.088 12.3048 196.088 12.3048 196.083 12.1805C196.131 11.8964 196.226 11.8179 196.477 11.6406C196.634 11.5428 196.794 11.4525 196.958 11.3626C197.211 11.16 197.27 10.9188 197.3 10.6251C197.302 10.5403 197.303 10.4554 197.304 10.368C197.306 10.2752 197.308 10.1823 197.311 10.0867C197.314 9.89156 197.316 9.69645 197.319 9.50134C197.321 9.40869 197.324 9.31604 197.326 9.22058C197.327 9.13592 197.328 9.05126 197.33 8.96404C197.365 8.75 197.365 8.75 197.473 8.59851C197.632 8.51562 197.632 8.51562 197.871 8.54003Z" fill="#0C0C0C"/>
</svg>
