<svg width="1740" height="1160" viewBox="0 0 1740 1160" fill="none" xmlns="http://www.w3.org/2000/svg">
<path d="M347.816 255.96C347.816 253.229 348.285 250.541 349.224 247.896C350.205 245.208 351.613 242.776 353.448 240.6C355.283 238.381 357.523 236.611 360.168 235.288C362.856 233.965 365.907 233.304 369.32 233.304C373.373 233.304 376.829 234.243 379.688 236.12C382.547 237.955 384.68 240.323 386.088 243.224L383.4 244.76C382.333 242.669 381.011 241.005 379.432 239.768C377.896 238.531 376.232 237.656 374.44 237.144C372.648 236.589 370.856 236.312 369.064 236.312C366.205 236.312 363.645 236.888 361.384 238.04C359.165 239.192 357.288 240.728 355.752 242.648C354.216 244.568 353.043 246.701 352.232 249.048C351.464 251.395 351.08 253.763 351.08 256.152C351.08 258.84 351.549 261.4 352.488 263.832C353.427 266.221 354.707 268.355 356.328 270.232C357.992 272.109 359.912 273.603 362.088 274.712C364.307 275.821 366.696 276.376 369.256 276.376C371.091 276.376 372.947 276.077 374.824 275.48C376.744 274.84 378.536 273.88 380.2 272.6C381.864 271.277 383.208 269.571 384.232 267.48L387.048 268.824C386.067 271.085 384.595 273.005 382.632 274.584C380.669 276.163 378.493 277.357 376.104 278.168C373.715 278.979 371.347 279.384 369 279.384C365.928 279.384 363.091 278.723 360.488 277.4C357.885 276.035 355.624 274.243 353.704 272.024C351.827 269.763 350.376 267.245 349.352 264.472C348.328 261.656 347.816 258.819 347.816 255.96ZM458.436 232.28H461.7V272.408C461.7 273.944 462.02 275.011 462.66 275.608C463.3 276.163 464.132 276.44 465.156 276.44C465.838 276.44 466.542 276.376 467.268 276.248C467.993 276.12 468.633 275.949 469.188 275.736L469.828 278.36C469.102 278.616 468.206 278.851 467.14 279.064C466.073 279.277 465.156 279.384 464.388 279.384C462.596 279.384 461.145 278.851 460.036 277.784C458.969 276.675 458.436 275.203 458.436 273.368V232.28ZM538.742 279V245.72H541.942V279H538.742ZM541.494 238.744L539.254 237.72L543.158 232.28H546.87L541.494 238.744ZM643.192 279H639.992V260.44C639.992 256.173 639.373 253.059 638.136 251.096C636.941 249.091 635.021 248.088 632.376 248.088C630.499 248.088 628.643 248.536 626.808 249.432C625.016 250.328 623.437 251.565 622.072 253.144C620.749 254.68 619.789 256.429 619.192 258.392V279H615.992V245.72H619V253.656C619.896 251.949 621.091 250.477 622.584 249.24C624.077 247.96 625.741 246.957 627.576 246.232C629.411 245.507 631.309 245.144 633.272 245.144C635.107 245.144 636.643 245.485 637.88 246.168C639.16 246.808 640.184 247.747 640.952 248.984C641.763 250.221 642.339 251.757 642.68 253.592C643.021 255.427 643.192 257.517 643.192 259.864V279ZM716.867 279V245.72H720.067V279H716.867ZM716.867 238.168V232.28H720.067V238.168H716.867ZM808.261 279.64C805.957 279.64 803.802 279.192 801.797 278.296C799.792 277.357 798.042 276.099 796.549 274.52C795.056 272.899 793.882 271.043 793.029 268.952C792.218 266.861 791.813 264.621 791.813 262.232C791.813 259.032 792.517 256.152 793.925 253.592C795.333 251.032 797.274 248.984 799.749 247.448C802.224 245.912 805.04 245.144 808.197 245.144C811.226 245.144 813.893 245.848 816.197 247.256C818.501 248.621 820.229 250.499 821.381 252.888L818.245 253.912C817.264 252.077 815.856 250.648 814.021 249.624C812.229 248.557 810.245 248.024 808.069 248.024C805.637 248.024 803.44 248.643 801.477 249.88C799.514 251.117 797.936 252.824 796.741 255C795.589 257.133 795.013 259.544 795.013 262.232C795.013 264.877 795.61 267.309 796.805 269.528C798 271.747 799.578 273.517 801.541 274.84C803.546 276.12 805.744 276.76 808.133 276.76C809.669 276.76 811.162 276.483 812.613 275.928C814.106 275.331 815.386 274.563 816.453 273.624C817.562 272.685 818.288 271.683 818.629 270.616L821.765 271.512C821.21 273.091 820.25 274.499 818.885 275.736C817.52 276.931 815.92 277.891 814.085 278.616C812.293 279.299 810.352 279.64 808.261 279.64ZM890.24 269.4C890.24 267.395 890.837 265.667 892.032 264.216C893.227 262.723 894.869 261.571 896.96 260.76C899.051 259.907 901.461 259.48 904.192 259.48C905.899 259.48 907.669 259.629 909.504 259.928C911.339 260.227 912.981 260.632 914.432 261.144V258.008C914.432 254.936 913.536 252.483 911.744 250.648C909.995 248.813 907.563 247.896 904.448 247.896C902.784 247.896 901.056 248.237 899.264 248.92C897.472 249.603 895.637 250.584 893.76 251.864L892.416 249.56C894.592 248.109 896.683 247.021 898.688 246.296C900.736 245.528 902.763 245.144 904.768 245.144C908.736 245.144 911.872 246.317 914.176 248.664C916.48 251.011 917.632 254.211 917.632 258.264V274.776C917.632 275.288 917.739 275.672 917.952 275.928C918.208 276.184 918.571 276.333 919.04 276.376V279C918.656 279.043 918.336 279.064 918.08 279.064C917.824 279.064 917.611 279.064 917.44 279.064C916.629 278.936 915.989 278.595 915.52 278.04C915.093 277.485 914.859 276.867 914.816 276.184V273.56C913.28 275.48 911.296 276.973 908.864 278.04C906.475 279.107 903.957 279.64 901.312 279.64C899.221 279.64 897.323 279.192 895.616 278.296C893.952 277.4 892.629 276.184 891.648 274.648C890.709 273.069 890.24 271.32 890.24 269.4ZM913.152 272.152C913.579 271.597 913.899 271.064 914.112 270.552C914.325 270.04 914.432 269.571 914.432 269.144V263.64C912.896 263.043 911.296 262.595 909.632 262.296C907.968 261.997 906.261 261.848 904.512 261.848C901.184 261.848 898.475 262.509 896.384 263.832C894.336 265.155 893.312 266.947 893.312 269.208C893.312 270.616 893.675 271.917 894.4 273.112C895.125 274.307 896.128 275.267 897.408 275.992C898.731 276.717 900.245 277.08 901.952 277.08C904.341 277.08 906.539 276.632 908.544 275.736C910.592 274.797 912.128 273.603 913.152 272.152ZM369.576 399.44H405.416L406.312 402.64H367.912L369.576 399.44ZM436.008 432.464C436.349 432.464 436.52 432.72 436.52 433.232C436.52 433.744 436.349 434 436.008 434C434.387 434 431.784 433.915 428.2 433.744C424.616 433.573 422.013 433.488 420.392 433.488C418.259 433.488 415.741 433.573 412.84 433.744C409.939 433.915 407.677 434 406.056 434C405.715 434 405.544 433.744 405.544 433.232C405.544 432.72 405.715 432.464 406.056 432.464C408.616 432.464 410.451 432.208 411.56 431.696C412.669 431.099 413.224 430.16 413.224 428.88C413.224 427.6 412.499 425.424 411.048 422.352L384.296 367.952L389.544 359.376L364.2 416.464C363.091 419.024 362.536 421.328 362.536 423.376C362.536 426.363 363.603 428.624 365.736 430.16C367.869 431.696 370.856 432.464 374.696 432.464C375.123 432.464 375.336 432.72 375.336 433.232C375.336 433.744 375.123 434 374.696 434C373.16 434 370.941 433.915 368.04 433.744C364.797 433.573 361.981 433.488 359.592 433.488C357.288 433.488 354.6 433.573 351.528 433.744C348.797 433.915 346.536 434 344.744 434C344.317 434 344.104 433.744 344.104 433.232C344.104 432.72 344.317 432.464 344.744 432.464C347.133 432.464 349.139 431.995 350.76 431.056C352.381 430.117 353.96 428.453 355.496 426.064C357.032 423.589 358.867 419.963 361 415.184L388.52 353.232C388.691 352.976 389.075 352.848 389.672 352.848C390.269 352.848 390.611 352.976 390.696 353.232L422.056 416.464C424.957 422.608 427.389 426.832 429.352 429.136C431.4 431.355 433.619 432.464 436.008 432.464ZM440.736 434C440.48 434 440.352 433.744 440.352 433.232C440.352 432.72 440.48 432.464 440.736 432.464C443.637 432.464 445.557 431.867 446.496 430.672C447.52 429.477 448.032 427.131 448.032 423.632V358.224C448.032 355.237 447.733 353.104 447.136 351.824C446.624 350.459 445.685 349.776 444.32 349.776C443.04 349.776 441.291 350.288 439.072 351.312H438.944C438.603 351.312 438.347 351.099 438.176 350.672C438.005 350.245 438.005 349.947 438.176 349.776L456.224 341.328L456.736 341.2C457.077 341.2 457.461 341.371 457.888 341.712C458.315 342.053 458.528 342.352 458.528 342.608V423.632C458.528 427.131 458.997 429.477 459.936 430.672C460.96 431.867 462.923 432.464 465.824 432.464C466.08 432.464 466.208 432.72 466.208 433.232C466.208 433.744 466.08 434 465.824 434C463.691 434 461.984 433.957 460.704 433.872L453.28 433.744L445.856 433.872C444.576 433.957 442.869 434 440.736 434ZM499.315 435.536C494.11 435.536 489.587 434.384 485.747 432.08C481.992 429.776 479.091 426.747 477.043 422.992C475.08 419.237 474.099 415.184 474.099 410.832C474.099 405.797 475.336 401.189 477.811 397.008C480.286 392.827 483.656 389.541 487.923 387.152C492.275 384.677 497.096 383.44 502.387 383.44C507.507 383.44 511.432 384.677 514.163 387.152C516.979 389.627 518.387 393.296 518.387 398.16C518.387 399.44 518.259 400.379 518.003 400.976C517.832 401.573 517.491 401.872 516.979 401.872H506.483C506.91 391.291 504.008 386 497.779 386C493.939 386 490.91 387.749 488.691 391.248C486.558 394.747 485.491 399.483 485.491 405.456C485.491 412.965 487.24 418.939 490.739 423.376C494.238 427.728 499.187 429.904 505.587 429.904C507.976 429.904 509.982 429.605 511.603 429.008C513.224 428.411 515.358 427.429 518.003 426.064L518.259 425.936C518.43 425.936 518.6 426.107 518.771 426.448C519.027 426.789 519.07 427.045 518.899 427.216C515.827 430.117 512.712 432.251 509.555 433.616C506.398 434.896 502.984 435.536 499.315 435.536ZM481.651 399.824L510.067 399.312V401.872L481.779 402L481.651 399.824ZM555.131 434C554.875 434 554.747 433.744 554.747 433.232C554.747 432.72 554.875 432.464 555.131 432.464C557.35 432.464 558.459 431.909 558.459 430.8C558.459 430.032 557.99 428.923 557.051 427.472L535.547 395.216C533.67 392.315 531.792 390.096 529.915 388.56C528.038 386.939 526.331 386.128 524.795 386.128C524.624 386.128 524.539 385.872 524.539 385.36C524.539 384.848 524.624 384.592 524.795 384.592C526.587 384.592 527.91 384.635 528.763 384.72L532.731 384.848L541.307 384.72C542.672 384.635 544.55 384.592 546.939 384.592C547.11 384.592 547.195 384.848 547.195 385.36C547.195 385.872 547.11 386.128 546.939 386.128C544.72 386.128 543.611 386.725 543.611 387.92C543.611 388.773 544.08 389.84 545.019 391.12L566.395 423.376C568.528 426.533 570.619 428.837 572.667 430.288C574.715 431.739 576.592 432.464 578.299 432.464C578.555 432.464 578.683 432.72 578.683 433.232C578.683 433.744 578.555 434 578.299 434L573.819 433.872C572.795 433.787 571.302 433.744 569.339 433.744L560.507 433.872C559.227 433.957 557.435 434 555.131 434ZM523.771 434C523.515 434 523.387 433.744 523.387 433.232C523.387 432.72 523.515 432.464 523.771 432.464C526.246 432.464 528.891 431.483 531.707 429.52C534.608 427.557 537.296 424.869 539.771 421.456L548.859 408.912L550.651 410.576L542.715 422.224C540.752 424.955 539.771 427.173 539.771 428.88C539.771 431.269 541.862 432.464 546.043 432.464C546.299 432.464 546.427 432.72 546.427 433.232C546.427 433.744 546.299 434 546.043 434C543.739 434 542.032 433.957 540.923 433.872L533.243 433.744L528.123 433.872C527.27 433.957 525.819 434 523.771 434ZM549.755 407.888L557.563 396.368C559.526 393.467 560.507 391.248 560.507 389.712C560.507 387.323 558.374 386.128 554.107 386.128C553.936 386.128 553.851 385.872 553.851 385.36C553.851 384.848 553.936 384.592 554.107 384.592C556.411 384.592 558.16 384.635 559.355 384.72L567.035 384.848L572.155 384.72C573.008 384.635 574.459 384.592 576.507 384.592C576.763 384.592 576.891 384.848 576.891 385.36C576.891 385.872 576.763 386.128 576.507 386.128C574.032 386.128 571.344 387.109 568.443 389.072C565.627 391.035 562.982 393.723 560.507 397.136L551.291 409.424L549.755 407.888ZM619.826 434.768C619.485 434.939 619.101 435.024 618.674 435.024C617.138 435.024 615.73 434 614.45 431.952C613.17 429.819 612.53 427.003 612.53 423.504V400.976C612.53 395.685 611.975 391.845 610.866 389.456C609.842 386.981 608.178 385.744 605.874 385.744C603.058 385.744 601.01 386.811 599.73 388.944C598.535 390.992 597.81 393.296 597.554 395.856C597.042 400.208 594.866 402.384 591.026 402.384C589.149 402.384 587.741 401.957 586.802 401.104C585.949 400.251 585.522 399.184 585.522 397.904C585.522 395.515 586.93 393.211 589.746 390.992C592.647 388.688 596.103 386.853 600.114 385.488C604.21 384.037 607.794 383.312 610.866 383.312C614.535 383.312 617.437 384.464 619.57 386.768C621.789 389.072 622.898 392.528 622.898 397.136V420.176C622.898 425.552 624.562 428.24 627.89 428.24C629.17 428.24 630.706 427.856 632.498 427.088H632.754C633.095 427.088 633.309 427.301 633.394 427.728C633.479 428.069 633.351 428.325 633.01 428.496L619.826 434.768ZM595.762 434.896C592.263 434.896 589.618 434.085 587.826 432.464C586.034 430.843 585.138 428.624 585.138 425.808C585.138 423.504 585.735 421.627 586.93 420.176C588.21 418.725 589.789 417.573 591.666 416.72C593.543 415.781 596.359 414.629 600.114 413.264L613.81 408.144L614.194 410.064L604.85 414.032C602.546 414.971 600.711 415.995 599.346 417.104C597.981 418.213 597.298 419.877 597.298 422.096C597.298 424.144 597.938 425.765 599.218 426.96C600.583 428.155 602.162 428.752 603.954 428.752C605.575 428.752 607.239 428.24 608.946 427.216L615.858 422.608L615.986 424.528L606.898 430.928C604.85 432.379 602.973 433.403 601.266 434C599.645 434.597 597.81 434.896 595.762 434.896ZM672.68 434C672.424 434 672.296 433.744 672.296 433.232C672.296 432.72 672.424 432.464 672.68 432.464C675.581 432.464 677.501 431.867 678.44 430.672C679.379 429.477 679.848 427.131 679.848 423.632V404.432C679.848 399.653 678.952 396.155 677.16 393.936C675.453 391.632 672.723 390.48 668.968 390.48C666.152 390.48 663.293 391.248 660.392 392.784C657.576 394.32 655.272 396.368 653.48 398.928L652.84 397.392C659.667 387.835 667.176 383.056 675.368 383.056C680.061 383.056 683.688 384.464 686.248 387.28C688.893 390.096 690.216 393.979 690.216 398.928V423.632C690.216 427.131 690.685 429.477 691.624 430.672C692.648 431.867 694.611 432.464 697.512 432.464C697.768 432.464 697.896 432.72 697.896 433.232C697.896 433.744 697.768 434 697.512 434C695.379 434 693.672 433.957 692.392 433.872L685.096 433.744L677.8 433.872C676.52 433.957 674.813 434 672.68 434ZM638.248 434C637.992 434 637.864 433.744 637.864 433.232C637.864 432.72 637.992 432.464 638.248 432.464C641.149 432.464 643.069 431.867 644.008 430.672C644.947 429.477 645.416 427.131 645.416 423.632V399.184C645.416 396.453 645.075 394.448 644.392 393.168C643.795 391.888 642.771 391.248 641.32 391.248C640.04 391.248 637.907 391.888 634.92 393.168H634.792C634.451 393.168 634.195 392.955 634.024 392.528C633.853 392.101 633.896 391.845 634.152 391.76L650.92 383.568C651.432 383.397 651.731 383.312 651.816 383.312C652.755 383.312 653.651 384.379 654.504 386.512C655.357 388.645 655.784 391.419 655.784 394.832V423.632C655.784 427.131 656.253 429.477 657.192 430.672C658.216 431.867 660.179 432.464 663.08 432.464C663.336 432.464 663.464 432.72 663.464 433.232C663.464 433.744 663.336 434 663.08 434C660.947 434 659.24 433.957 657.96 433.872L650.664 433.744L643.24 433.872C642.045 433.957 640.381 434 638.248 434ZM724.32 435.664C720.651 435.664 717.28 434.683 714.208 432.72C711.136 430.672 708.704 427.771 706.912 424.016C705.12 420.261 704.224 415.867 704.224 410.832C704.224 404.517 705.717 399.269 708.704 395.088C711.691 390.907 715.445 387.835 719.968 385.872C724.491 383.909 729.013 382.928 733.536 382.928C739.083 382.928 744.331 384.464 749.28 387.536L746.848 397.264C744.8 393.424 742.539 390.608 740.064 388.816C737.675 386.939 734.688 386 731.104 386C726.24 386 722.443 387.707 719.712 391.12C717.067 394.533 715.744 399.781 715.744 406.864C715.744 414.032 717.152 419.707 719.968 423.888C722.784 427.984 726.368 430.032 730.72 430.032C733.963 430.032 736.864 429.179 739.424 427.472C742.069 425.765 744.885 423.291 747.872 420.048L749.024 421.072C745.099 425.424 741.216 428.965 737.376 431.696C733.621 434.341 729.269 435.664 724.32 435.664ZM754.656 419.408C754.656 422.395 754.955 424.528 755.552 425.808C756.149 427.003 757.173 427.6 758.624 427.6C760.331 427.6 762.251 427.088 764.384 426.064H764.512C764.768 426.064 764.981 426.277 765.152 426.704C765.408 427.131 765.408 427.387 765.152 427.472L748.768 435.408L748 435.536C746.976 435.536 746.08 434.469 745.312 432.336C744.629 430.203 744.288 427.259 744.288 423.504V358.224C744.288 355.237 743.989 353.104 743.392 351.824C742.88 350.459 741.899 349.776 740.448 349.776C739.509 349.776 737.803 350.288 735.328 351.312H735.072C734.731 351.312 734.475 351.099 734.304 350.672C734.133 350.245 734.176 349.989 734.432 349.904L752.352 341.328L752.864 341.2C753.205 341.2 753.589 341.371 754.016 341.712C754.443 342.053 754.656 342.352 754.656 342.608V419.408ZM784.319 397.776C788.927 392.315 792.596 388.56 795.327 386.512C798.058 384.379 800.49 383.312 802.623 383.312C804.5 383.312 806.335 383.952 808.127 385.232C809.919 386.512 810.815 388.048 810.815 389.84C810.815 391.461 810.346 392.784 809.407 393.808C808.468 394.747 807.146 395.216 805.439 395.216C804.33 395.216 803.434 395.003 802.751 394.576C802.068 394.149 801.3 393.509 800.447 392.656C799.679 391.888 798.996 391.333 798.399 390.992C797.802 390.565 797.076 390.352 796.223 390.352C795.114 390.352 793.834 390.907 792.383 392.016C791.018 393.125 788.628 395.557 785.215 399.312L784.319 397.776ZM770.623 434C770.367 434 770.239 433.744 770.239 433.232C770.239 432.72 770.367 432.464 770.623 432.464C773.524 432.464 775.444 431.867 776.383 430.672C777.322 429.477 777.791 427.131 777.791 423.632V399.184C777.791 396.453 777.45 394.448 776.767 393.168C776.17 391.888 775.146 391.248 773.695 391.248C772.415 391.248 770.282 391.888 767.295 393.168H767.167C766.826 393.168 766.57 392.955 766.399 392.528C766.228 392.101 766.271 391.845 766.527 391.76L783.295 383.568C783.807 383.397 784.106 383.312 784.191 383.312C785.13 383.312 786.026 384.379 786.879 386.512C787.732 388.645 788.159 391.419 788.159 394.832V423.632C788.159 426.021 788.5 427.856 789.183 429.136C789.866 430.331 791.018 431.184 792.639 431.696C794.346 432.208 796.778 432.464 799.935 432.464C800.276 432.464 800.447 432.72 800.447 433.232C800.447 433.744 800.276 434 799.935 434C797.034 434 794.73 433.957 793.023 433.872L783.039 433.744L775.615 433.872C774.42 433.957 772.756 434 770.623 434ZM852.201 434.768C851.86 434.939 851.476 435.024 851.049 435.024C849.513 435.024 848.105 434 846.825 431.952C845.545 429.819 844.905 427.003 844.905 423.504V400.976C844.905 395.685 844.35 391.845 843.241 389.456C842.217 386.981 840.553 385.744 838.249 385.744C835.433 385.744 833.385 386.811 832.105 388.944C830.91 390.992 830.185 393.296 829.929 395.856C829.417 400.208 827.241 402.384 823.401 402.384C821.524 402.384 820.116 401.957 819.177 401.104C818.324 400.251 817.897 399.184 817.897 397.904C817.897 395.515 819.305 393.211 822.121 390.992C825.022 388.688 828.478 386.853 832.489 385.488C836.585 384.037 840.169 383.312 843.241 383.312C846.91 383.312 849.812 384.464 851.945 386.768C854.164 389.072 855.273 392.528 855.273 397.136V420.176C855.273 425.552 856.937 428.24 860.265 428.24C861.545 428.24 863.081 427.856 864.873 427.088H865.129C865.47 427.088 865.684 427.301 865.769 427.728C865.854 428.069 865.726 428.325 865.385 428.496L852.201 434.768ZM828.137 434.896C824.638 434.896 821.993 434.085 820.201 432.464C818.409 430.843 817.513 428.624 817.513 425.808C817.513 423.504 818.11 421.627 819.305 420.176C820.585 418.725 822.164 417.573 824.041 416.72C825.918 415.781 828.734 414.629 832.489 413.264L846.185 408.144L846.569 410.064L837.225 414.032C834.921 414.971 833.086 415.995 831.721 417.104C830.356 418.213 829.673 419.877 829.673 422.096C829.673 424.144 830.313 425.765 831.593 426.96C832.958 428.155 834.537 428.752 836.329 428.752C837.95 428.752 839.614 428.24 841.321 427.216L848.233 422.608L848.361 424.528L839.273 430.928C837.225 432.379 835.348 433.403 833.641 434C832.02 434.597 830.185 434.896 828.137 434.896ZM371.624 578.12C371.624 580.851 371.923 582.856 372.52 584.136C373.203 585.331 374.44 586.184 376.232 586.696C378.109 587.208 381.011 587.464 384.936 587.464C385.192 587.464 385.32 587.72 385.32 588.232C385.32 588.744 385.192 589 384.936 589C381.437 589 378.707 588.957 376.744 588.872L365.608 588.744L356.392 588.872C354.771 588.957 352.552 589 349.736 589C349.48 589 349.352 588.744 349.352 588.232C349.352 587.72 349.48 587.464 349.736 587.464C352.637 587.464 354.728 587.251 356.008 586.824C357.373 586.397 358.269 585.587 358.696 584.392C359.208 583.112 359.464 581.192 359.464 578.632V519.368C359.464 516.808 359.208 514.931 358.696 513.736C358.269 512.541 357.373 511.731 356.008 511.304C354.643 510.792 352.552 510.536 349.736 510.536C349.48 510.536 349.352 510.28 349.352 509.768C349.352 509.256 349.48 509 349.736 509L356.392 509.128C360.147 509.299 363.176 509.384 365.48 509.384C367.443 509.384 369.832 509.256 372.648 509C373.672 508.915 375.037 508.829 376.744 508.744C378.536 508.659 380.627 508.616 383.016 508.616C391.379 508.616 398.035 510.408 402.984 513.992C407.933 517.576 410.408 523.08 410.408 530.504C410.408 535.88 409 540.445 406.184 544.2C403.453 547.955 399.912 550.771 395.56 552.648C391.293 554.525 386.899 555.464 382.376 555.464C379.987 555.464 377.939 555.251 376.232 554.824C376.061 554.824 375.976 554.611 375.976 554.184C375.976 553.928 376.019 553.672 376.104 553.416C376.275 553.16 376.445 553.075 376.616 553.16C377.896 553.501 379.389 553.672 381.096 553.672C385.533 553.672 389.288 551.837 392.36 548.168C395.432 544.499 396.968 539.251 396.968 532.424C396.968 525.683 395.389 520.477 392.232 516.808C389.16 513.053 384.808 511.176 379.176 511.176C377.128 511.176 375.549 511.389 374.44 511.816C373.416 512.243 372.691 513.053 372.264 514.248C371.837 515.357 371.624 517.149 371.624 519.624V578.12ZM452.076 589.768C451.735 589.939 451.351 590.024 450.924 590.024C449.388 590.024 447.98 589 446.7 586.952C445.42 584.819 444.78 582.003 444.78 578.504V555.976C444.78 550.685 444.225 546.845 443.116 544.456C442.092 541.981 440.428 540.744 438.124 540.744C435.308 540.744 433.26 541.811 431.98 543.944C430.785 545.992 430.06 548.296 429.804 550.856C429.292 555.208 427.116 557.384 423.276 557.384C421.399 557.384 419.991 556.957 419.052 556.104C418.199 555.251 417.772 554.184 417.772 552.904C417.772 550.515 419.18 548.211 421.996 545.992C424.897 543.688 428.353 541.853 432.364 540.488C436.46 539.037 440.044 538.312 443.116 538.312C446.785 538.312 449.687 539.464 451.82 541.768C454.039 544.072 455.148 547.528 455.148 552.136V575.176C455.148 580.552 456.812 583.24 460.14 583.24C461.42 583.24 462.956 582.856 464.748 582.088H465.004C465.345 582.088 465.559 582.301 465.644 582.728C465.729 583.069 465.601 583.325 465.26 583.496L452.076 589.768ZM428.012 589.896C424.513 589.896 421.868 589.085 420.076 587.464C418.284 585.843 417.388 583.624 417.388 580.808C417.388 578.504 417.985 576.627 419.18 575.176C420.46 573.725 422.039 572.573 423.916 571.72C425.793 570.781 428.609 569.629 432.364 568.264L446.06 563.144L446.444 565.064L437.1 569.032C434.796 569.971 432.961 570.995 431.596 572.104C430.231 573.213 429.548 574.877 429.548 577.096C429.548 579.144 430.188 580.765 431.468 581.96C432.833 583.155 434.412 583.752 436.204 583.752C437.825 583.752 439.489 583.24 441.196 582.216L448.108 577.608L448.236 579.528L439.148 585.928C437.1 587.379 435.223 588.403 433.516 589C431.895 589.597 430.06 589.896 428.012 589.896ZM469.986 589C469.73 589 469.602 588.744 469.602 588.232C469.602 587.72 469.73 587.464 469.986 587.464C472.887 587.464 474.807 586.867 475.746 585.672C476.77 584.477 477.282 582.131 477.282 578.632V513.224C477.282 510.237 476.983 508.104 476.386 506.824C475.874 505.459 474.935 504.776 473.57 504.776C472.29 504.776 470.541 505.288 468.322 506.312H468.194C467.853 506.312 467.597 506.099 467.426 505.672C467.255 505.245 467.255 504.947 467.426 504.776L485.474 496.328L485.986 496.2C486.327 496.2 486.711 496.371 487.138 496.712C487.565 497.053 487.778 497.352 487.778 497.608V578.632C487.778 582.131 488.247 584.477 489.186 585.672C490.21 586.867 492.173 587.464 495.074 587.464C495.33 587.464 495.458 587.72 495.458 588.232C495.458 588.744 495.33 589 495.074 589C492.941 589 491.234 588.957 489.954 588.872L482.53 588.744L475.106 588.872C473.826 588.957 472.119 589 469.986 589ZM528.565 590.536C523.36 590.536 518.837 589.384 514.997 587.08C511.242 584.776 508.341 581.747 506.293 577.992C504.33 574.237 503.349 570.184 503.349 565.832C503.349 560.797 504.586 556.189 507.061 552.008C509.536 547.827 512.906 544.541 517.173 542.152C521.525 539.677 526.346 538.44 531.637 538.44C536.757 538.44 540.682 539.677 543.413 542.152C546.229 544.627 547.637 548.296 547.637 553.16C547.637 554.44 547.509 555.379 547.253 555.976C547.082 556.573 546.741 556.872 546.229 556.872H535.733C536.16 546.291 533.258 541 527.029 541C523.189 541 520.16 542.749 517.941 546.248C515.808 549.747 514.741 554.483 514.741 560.456C514.741 567.965 516.49 573.939 519.989 578.376C523.488 582.728 528.437 584.904 534.837 584.904C537.226 584.904 539.232 584.605 540.853 584.008C542.474 583.411 544.608 582.429 547.253 581.064L547.509 580.936C547.68 580.936 547.85 581.107 548.021 581.448C548.277 581.789 548.32 582.045 548.149 582.216C545.077 585.117 541.962 587.251 538.805 588.616C535.648 589.896 532.234 590.536 528.565 590.536ZM510.901 554.824L539.317 554.312V556.872L511.029 557L510.901 554.824ZM591.805 589C591.549 589 591.421 588.744 591.421 588.232C591.421 587.72 591.549 587.464 591.805 587.464C594.706 587.464 596.626 586.867 597.565 585.672C598.504 584.477 598.973 582.131 598.973 578.632V559.432C598.973 554.653 598.077 551.155 596.285 548.936C594.578 546.632 591.848 545.48 588.093 545.48C585.277 545.48 582.418 546.248 579.517 547.784C576.701 549.32 574.397 551.368 572.605 553.928L571.965 552.392C578.792 542.835 586.301 538.056 594.493 538.056C599.186 538.056 602.813 539.464 605.373 542.28C608.018 545.096 609.341 548.979 609.341 553.928V578.632C609.341 582.131 609.81 584.477 610.749 585.672C611.773 586.867 613.736 587.464 616.637 587.464C616.893 587.464 617.021 587.72 617.021 588.232C617.021 588.744 616.893 589 616.637 589C614.504 589 612.797 588.957 611.517 588.872L604.221 588.744L596.925 588.872C595.645 588.957 593.938 589 591.805 589ZM557.373 589C557.117 589 556.989 588.744 556.989 588.232C556.989 587.72 557.117 587.464 557.373 587.464C560.274 587.464 562.194 586.867 563.133 585.672C564.072 584.477 564.541 582.131 564.541 578.632V554.184C564.541 551.453 564.2 549.448 563.517 548.168C562.92 546.888 561.896 546.248 560.445 546.248C559.165 546.248 557.032 546.888 554.045 548.168H553.917C553.576 548.168 553.32 547.955 553.149 547.528C552.978 547.101 553.021 546.845 553.277 546.76L570.045 538.568C570.557 538.397 570.856 538.312 570.941 538.312C571.88 538.312 572.776 539.379 573.629 541.512C574.482 543.645 574.909 546.419 574.909 549.832V578.632C574.909 582.131 575.378 584.477 576.317 585.672C577.341 586.867 579.304 587.464 582.205 587.464C582.461 587.464 582.589 587.72 582.589 588.232C582.589 588.744 582.461 589 582.205 589C580.072 589 578.365 588.957 577.085 588.872L569.789 588.744L562.365 588.872C561.17 588.957 559.506 589 557.373 589ZM653.045 542.28C653.386 541.683 653.173 541.384 652.405 541.384C644.469 541.384 638.325 542.365 633.973 544.328C629.621 546.291 626.677 549.576 625.141 554.184C625.141 554.355 624.97 554.44 624.629 554.44C624.373 554.44 624.117 554.397 623.861 554.312C623.605 554.141 623.52 554.013 623.605 553.928L628.725 534.984C628.725 534.899 628.896 534.856 629.237 534.856C629.92 534.856 630.218 535.027 630.133 535.368C629.962 536.051 629.877 536.52 629.877 536.776C629.877 537.885 630.389 538.653 631.413 539.08C632.437 539.421 634.101 539.592 636.405 539.592H665.077C665.418 539.592 665.674 539.763 665.845 540.104C666.101 540.445 666.186 540.787 666.101 541.128L636.533 585.928C636.277 586.525 636.49 586.824 637.173 586.824C643.573 586.824 648.65 586.397 652.405 585.544C656.245 584.691 659.189 583.283 661.237 581.32C663.285 579.272 664.778 576.456 665.717 572.872C665.802 572.701 666.058 572.616 666.485 572.616C666.997 572.616 667.253 572.701 667.253 572.872L666.997 587.592C666.997 587.933 666.869 588.275 666.613 588.616C666.357 588.872 666.058 589 665.717 589H624.629C624.288 589 623.989 588.829 623.733 588.488C623.562 588.147 623.562 587.805 623.733 587.464L653.045 542.28ZM695.192 590.408C690.584 590.408 687 589 684.44 586.184C681.88 583.283 680.6 579.357 680.6 574.408V555.336C680.6 552.349 680.259 550.173 679.576 548.808C678.979 547.357 677.997 546.632 676.632 546.632C675.523 546.632 674.328 546.973 673.048 547.656H672.92C672.579 547.656 672.323 547.443 672.152 547.016C671.981 546.589 672.024 546.291 672.28 546.12L688.408 538.568L689.048 538.44C689.389 538.44 689.773 538.611 690.2 538.952C690.627 539.293 690.84 539.592 690.84 539.848V568.904C690.84 573.683 691.693 577.267 693.4 579.656C695.192 581.96 697.88 583.112 701.464 583.112C704.195 583.112 706.925 582.344 709.656 580.808C712.472 579.187 714.776 577.096 716.568 574.536L717.336 576.072C710.339 585.629 702.957 590.408 695.192 590.408ZM724.376 574.536C724.376 577.437 724.675 579.528 725.272 580.808C725.869 582.003 726.893 582.6 728.344 582.6C729.368 582.6 731.288 582.088 734.104 581.064L734.36 580.936C734.616 580.936 734.829 581.149 735 581.576C735.171 582.003 735.128 582.301 734.872 582.472L718.104 590.536L717.592 590.664C716.653 590.664 715.843 589.597 715.16 587.464C714.477 585.331 714.136 582.472 714.136 578.888V555.336C714.136 552.349 713.795 550.173 713.112 548.808C712.515 547.357 711.533 546.632 710.168 546.632C709.144 546.632 707.949 546.973 706.584 547.656H706.456C706.115 547.656 705.859 547.443 705.688 547.016C705.517 546.504 705.603 546.205 705.944 546.12L722.072 538.568L722.584 538.44C722.925 538.44 723.309 538.611 723.736 538.952C724.163 539.293 724.376 539.592 724.376 539.848V574.536ZM764.565 590.536C759.36 590.536 754.837 589.384 750.997 587.08C747.242 584.776 744.341 581.747 742.293 577.992C740.33 574.237 739.349 570.184 739.349 565.832C739.349 560.797 740.586 556.189 743.061 552.008C745.536 547.827 748.906 544.541 753.173 542.152C757.525 539.677 762.346 538.44 767.637 538.44C772.757 538.44 776.682 539.677 779.413 542.152C782.229 544.627 783.637 548.296 783.637 553.16C783.637 554.44 783.509 555.379 783.253 555.976C783.082 556.573 782.741 556.872 782.229 556.872H771.733C772.16 546.291 769.258 541 763.029 541C759.189 541 756.16 542.749 753.941 546.248C751.808 549.747 750.741 554.483 750.741 560.456C750.741 567.965 752.49 573.939 755.989 578.376C759.488 582.728 764.437 584.904 770.837 584.904C773.226 584.904 775.232 584.605 776.853 584.008C778.474 583.411 780.608 582.429 783.253 581.064L783.509 580.936C783.68 580.936 783.85 581.107 784.021 581.448C784.277 581.789 784.32 582.045 784.149 582.216C781.077 585.117 777.962 587.251 774.805 588.616C771.648 589.896 768.234 590.536 764.565 590.536ZM746.901 554.824L775.317 554.312V556.872L747.029 557L746.901 554.824ZM792.861 589C792.605 589 792.477 588.744 792.477 588.232C792.477 587.72 792.605 587.464 792.861 587.464C795.762 587.464 797.682 586.867 798.621 585.672C799.645 584.477 800.157 582.131 800.157 578.632V513.224C800.157 510.237 799.858 508.104 799.261 506.824C798.749 505.459 797.81 504.776 796.445 504.776C795.165 504.776 793.416 505.288 791.197 506.312H791.069C790.728 506.312 790.472 506.099 790.301 505.672C790.13 505.245 790.13 504.947 790.301 504.776L808.349 496.328L808.861 496.2C809.202 496.2 809.586 496.371 810.013 496.712C810.44 497.053 810.653 497.352 810.653 497.608V578.632C810.653 582.131 811.122 584.477 812.061 585.672C813.085 586.867 815.048 587.464 817.949 587.464C818.205 587.464 818.333 587.72 818.333 588.232C818.333 588.744 818.205 589 817.949 589C815.816 589 814.109 588.957 812.829 588.872L805.405 588.744L797.981 588.872C796.701 588.957 794.994 589 792.861 589ZM862.576 589.768C862.235 589.939 861.851 590.024 861.424 590.024C859.888 590.024 858.48 589 857.2 586.952C855.92 584.819 855.28 582.003 855.28 578.504V555.976C855.28 550.685 854.725 546.845 853.616 544.456C852.592 541.981 850.928 540.744 848.624 540.744C845.808 540.744 843.76 541.811 842.48 543.944C841.285 545.992 840.56 548.296 840.304 550.856C839.792 555.208 837.616 557.384 833.776 557.384C831.899 557.384 830.491 556.957 829.552 556.104C828.699 555.251 828.272 554.184 828.272 552.904C828.272 550.515 829.68 548.211 832.496 545.992C835.397 543.688 838.853 541.853 842.864 540.488C846.96 539.037 850.544 538.312 853.616 538.312C857.285 538.312 860.187 539.464 862.32 541.768C864.539 544.072 865.648 547.528 865.648 552.136V575.176C865.648 580.552 867.312 583.24 870.64 583.24C871.92 583.24 873.456 582.856 875.248 582.088H875.504C875.845 582.088 876.059 582.301 876.144 582.728C876.229 583.069 876.101 583.325 875.76 583.496L862.576 589.768ZM838.512 589.896C835.013 589.896 832.368 589.085 830.576 587.464C828.784 585.843 827.888 583.624 827.888 580.808C827.888 578.504 828.485 576.627 829.68 575.176C830.96 573.725 832.539 572.573 834.416 571.72C836.293 570.781 839.109 569.629 842.864 568.264L856.56 563.144L856.944 565.064L847.6 569.032C845.296 569.971 843.461 570.995 842.096 572.104C840.731 573.213 840.048 574.877 840.048 577.096C840.048 579.144 840.688 580.765 841.968 581.96C843.333 583.155 844.912 583.752 846.704 583.752C848.325 583.752 849.989 583.24 851.696 582.216L858.608 577.608L858.736 579.528L849.648 585.928C847.6 587.379 845.723 588.403 844.016 589C842.395 589.597 840.56 589.896 838.512 589.896Z" fill="#EB9C9B"/>
<path d="M1315 182C1319.71 182.706 1319.71 182.706 1321 184C1321.04 186.552 1321.02 189.079 1320.96 191.629C1320.93 193.239 1320.91 194.849 1320.89 196.459C1320.86 198.986 1320.81 201.513 1320.75 204.04C1320.49 215.737 1321.53 225.786 1325 237C1325.21 237.674 1325.42 238.348 1325.63 239.042C1331.23 257.01 1338.93 274.5 1348.44 290.75C1357.34 306.131 1363.71 322.582 1368.34 339.7C1368.96 341.871 1369.69 343.967 1370.47 346.086C1378.43 368.575 1375.22 394.832 1368 417C1367.59 418.32 1367.18 419.64 1366.77 420.961C1365.8 423.943 1364.79 426.902 1363.75 429.857C1362.13 434.491 1360.61 439.156 1359.06 443.812C1358.37 445.887 1357.68 447.961 1356.98 450.035C1355.75 453.727 1354.53 457.421 1353.33 461.121C1353.07 461.908 1352.81 462.696 1352.55 463.507C1352.08 464.925 1351.62 466.344 1351.17 467.765C1349.84 471.817 1348.29 475.733 1346.63 479.66C1344.35 485.058 1342.36 490.52 1340.41 496.046C1333.09 516.78 1324.01 536.648 1314.41 556.419C1310.46 564.612 1307.26 572.892 1304.7 581.628C1304.23 583.204 1303.76 584.775 1303.26 586.341C1286.89 639.07 1307.92 694.521 1332 741C1333.37 743.559 1334.75 746.108 1336.14 748.657C1344.42 763.933 1350.81 779.679 1353 797C1353.14 798.064 1353.14 798.064 1353.28 799.149C1354.16 806.772 1354.24 814.395 1354.25 822.062C1354.25 822.783 1354.25 823.504 1354.25 824.247C1354.24 849.135 1352.63 874.336 1348.62 898.91C1347.83 903.824 1347.52 908.726 1347.31 913.699C1347 916 1347 916 1345 918C1341.46 917.464 1341.46 917.464 1340 916C1339.16 900.783 1340.88 885.677 1342.44 870.562C1342.79 867.105 1343.13 863.647 1343.48 860.188C1343.69 858.059 1343.91 855.93 1344.12 853.8C1349.16 804.513 1340.67 772.747 1317.81 729.25C1309.67 713.699 1302.16 698.118 1298 681C1297.5 679.159 1297.5 679.159 1296.98 677.281C1292.26 659.481 1290.75 641.118 1290.69 622.75C1290.68 621.586 1290.68 620.421 1290.67 619.222C1290.77 607.493 1292.29 596.126 1295.62 584.875C1295.89 583.982 1296.15 583.09 1296.42 582.17C1301.31 565.997 1308.37 550.948 1315.78 535.802C1322.54 521.937 1328.9 508.009 1333.58 493.285C1335.43 487.562 1337.58 481.947 1339.69 476.312C1362.48 415.057 1376.24 368.925 1349.01 306.733C1346.25 300.79 1343.21 295.018 1339.88 289.375C1332.68 277.105 1327.31 264.187 1322 251C1321.71 250.286 1321.41 249.571 1321.11 248.835C1313.41 230.046 1307.66 205.432 1312.96 185.348C1314 183 1314 183 1315 182Z" fill="#EB9C9B"/>
<path d="M1277.89 282.815C1280.02 282.812 1282.16 282.794 1284.29 282.775C1285.65 282.772 1287.01 282.77 1288.38 282.77C1290.21 282.763 1290.21 282.763 1292.09 282.757C1295 283 1295 283 1297 285C1296.75 287.562 1296.75 287.562 1296 290C1293.56 291.22 1291.91 291.157 1289.18 291.211C1288.18 291.237 1287.18 291.263 1286.15 291.29C1285.07 291.318 1283.99 291.346 1282.88 291.375C1253.82 292.377 1232.59 296.157 1211 317C1209.8 318.149 1209.8 318.149 1208.58 319.32C1205.55 322.463 1202.83 325.77 1200.12 329.188C1199.59 329.857 1199.06 330.527 1198.51 331.218C1194.47 336.35 1190.59 341.534 1187 347C1186.59 347.622 1186.18 348.245 1185.75 348.886C1167.95 375.944 1152.6 405.546 1140.24 435.504C1137.37 442.384 1134.06 449.009 1130.62 455.625C1129.86 457.112 1129.86 457.112 1129.07 458.629C1124.75 466.82 1124.75 466.82 1122 469C1119.31 468.688 1119.31 468.688 1117 468C1117.52 462.732 1118.76 458.879 1121.19 454.188C1121.53 453.513 1121.88 452.838 1122.24 452.143C1126.76 443.41 1131.47 434.772 1136.16 426.125C1138.79 421.264 1141.39 416.389 1143.97 411.5C1151.8 396.665 1159.88 382.033 1168.45 367.607C1169.89 365.178 1171.32 362.742 1172.74 360.301C1209.6 297.016 1209.6 297.016 1243 287C1243.92 286.714 1244.83 286.428 1245.78 286.133C1256.37 283.013 1266.92 282.813 1277.89 282.815Z" fill="#EB9C9B"/>
<path d="M1299.69 109.313C1300.45 109.539 1301.21 109.766 1302 110C1302.09 113.958 1302.14 117.916 1302.19 121.875C1302.21 122.984 1302.24 124.092 1302.26 125.234C1302.34 133.598 1301.7 143.354 1296 150C1293.09 151.865 1290.1 153.474 1287 155C1287.14 157.042 1287.29 159.084 1287.44 161.125C1287.52 162.262 1287.6 163.399 1287.68 164.57C1287.95 167.952 1287.95 167.952 1288.52 171.078C1291.89 191.576 1281.85 210.358 1270.43 226.645C1267.13 231.245 1263.64 235.663 1260 240C1259.15 241.037 1258.3 242.075 1257.45 243.113C1234.92 270.404 1234.92 270.404 1220.49 272.336C1208.71 272.512 1200.61 268.17 1191.34 261.316C1188.79 258.797 1188.16 257.536 1188 254C1189 253 1189 253 1191.66 252.699C1195.84 253.075 1198.01 254.508 1201.5 256.813C1209.42 261.988 1215.34 265.659 1225 264C1228.15 262.481 1230.46 260.375 1233 258C1233.79 257.335 1234.58 256.67 1235.4 255.984C1241.74 250.562 1246.88 244.561 1252 238C1252.88 236.904 1253.77 235.809 1254.66 234.715C1263.79 223.383 1272.75 211.693 1278 198C1278.48 196.913 1278.48 196.913 1278.96 195.805C1282.24 187.169 1282.94 173.824 1280 165C1279.83 163.025 1279.73 161.044 1279.69 159.063C1279.63 157.502 1279.63 157.502 1279.57 155.91C1280.11 152.275 1281.18 151.27 1284 149C1285.77 147.749 1287.58 146.593 1289.41 145.441C1292.27 142.848 1292.93 139.761 1293.27 136.002C1293.28 134.916 1293.3 133.83 1293.31 132.711C1293.33 131.522 1293.36 130.334 1293.38 129.109C1293.42 126.612 1293.45 124.115 1293.48 121.617C1293.5 120.431 1293.53 119.245 1293.56 118.023C1293.57 116.94 1293.59 115.856 1293.6 114.74C1294 112 1294 112 1295.22 110.061C1297 109 1297 109 1299.69 109.313Z" fill="#EB9C9B"/>
</svg>
